<svg width="32" xmlns="http://www.w3.org/2000/svg" height="32" id="screenshot-2274f55a-3db1-80e1-8006-642743381c7f" viewBox="0 0 32 32" xmlns:xlink="http://www.w3.org/1999/xlink" fill="none" version="1.1"><g id="shape-2274f55a-3db1-80e1-8006-642743381c7f" rx="0" ry="0"><g id="shape-3624a176-cc7b-80b4-8006-6423db785549" style="opacity: 1;"><g class="fills" id="fills-3624a176-cc7b-80b4-8006-6423db785549"><rect rx="0" ry="0" x="0" y="0" transform="matrix(1.000000, 0.000000, 0.000000, 1.000000, 0.000000, 0.000000)" width="32" height="32"/></g></g><g id="shape-2274f55a-3db1-80e1-8006-64252c9be9cf"><g class="fills" id="fills-2274f55a-3db1-80e1-8006-64252c9be9cf"><path d="M13,26L25,26"/></g><g id="strokes-a0ec085b-a410-801c-8006-682c6f21b1e8-2274f55a-3db1-80e1-8006-64252c9be9cf" class="strokes"><g class="stroke-shape"><path d="M13,26L25,26" style="fill: none; stroke-width: 2; stroke: rgb(0, 29, 89); stroke-opacity: 1; stroke-linecap: round;"/></g></g></g><g id="shape-2274f55a-3db1-80e1-8006-64252c9be9d0"><g class="fills" id="fills-2274f55a-3db1-80e1-8006-64252c9be9d0"><path d="M10.138834764831852,15.838834764831809 h6.0000000000000036 a3,3 0 0 1 3,3 v7.0000000000000036 a0,0 0 0 1 0,0 h-15.000000000000004 a0,0 0 0 1 0,0 v-4.0000000000000036 a6,6 0 0 1 6,-6 z" x="4.138834764831853" y="15.838834764831809" transform="matrix(-0.707107, -0.707107, 0.707107, -0.707107, 5.133452, 43.804015)" width="15.000000000000004" height="10.000000000000004" style="fill: rgb(255, 237, 198); fill-opacity: 1;"/></g><g id="strokes-a0ec085b-a410-801c-8006-682c6f224ffb-2274f55a-3db1-80e1-8006-64252c9be9d0" class="strokes"><g class="inner-stroke-shape" transform="matrix(-0.707107, -0.707107, 0.707107, -0.707107, 5.133452, 43.804015)"><defs><clipPath id="inner-stroke-render-4-2274f55a-3db1-80e1-8006-64252c9be9d0-0"><use href="#stroke-shape-render-4-2274f55a-3db1-80e1-8006-64252c9be9d0-0"/></clipPath><path d="M10.138834764831852,15.838834764831809 h6.0000000000000036 a3,3 0 0 1 3,3 v7.0000000000000036 a0,0 0 0 1 0,0 h-15.000000000000004 a0,0 0 0 1 0,0 v-4.0000000000000036 a6,6 0 0 1 6,-6 z" x="4.138834764831853" y="15.838834764831809" width="15.000000000000004" height="10.000000000000004" id="stroke-shape-render-4-2274f55a-3db1-80e1-8006-64252c9be9d0-0" style="fill: none; stroke-width: 4; stroke: rgb(0, 29, 89); stroke-opacity: 1;"/></defs><use href="#stroke-shape-render-4-2274f55a-3db1-80e1-8006-64252c9be9d0-0" clip-path="url('#inner-stroke-render-4-2274f55a-3db1-80e1-8006-64252c9be9d0-0')"/></g></g></g><g id="shape-2274f55a-3db1-80e1-8006-64252c9be9d1"><g class="fills" id="fills-2274f55a-3db1-80e1-8006-64252c9be9d1"><path d="M11.10660171779826,6.356601717798191 h15.000000000000004 a0,0 0 0 1 0,0 v11.999999999999996 a3,3 0 0 1 -3,3 h-9.000000000000004 a3,3 0 0 1 -3,-3 v-11.999999999999996 a0,0 0 0 1 0,0 z" x="11.10660171779826" y="6.356601717798191" transform="matrix(-0.707107, -0.707107, 0.707107, -0.707107, 21.965359, 36.811553)" width="15.000000000000004" height="14.999999999999996" style="fill: rgb(183, 226, 255); fill-opacity: 1;"/></g><g id="strokes-a0ec085b-a410-801c-8006-682c6f22eceb-2274f55a-3db1-80e1-8006-64252c9be9d1" class="strokes"><g class="inner-stroke-shape" transform="matrix(-0.707107, -0.707107, 0.707107, -0.707107, 21.965359, 36.811553)"><defs><clipPath id="inner-stroke-render-5-2274f55a-3db1-80e1-8006-64252c9be9d1-0"><use href="#stroke-shape-render-5-2274f55a-3db1-80e1-8006-64252c9be9d1-0"/></clipPath><path d="M11.10660171779826,6.356601717798191 h15.000000000000004 a0,0 0 0 1 0,0 v11.999999999999996 a3,3 0 0 1 -3,3 h-9.000000000000004 a3,3 0 0 1 -3,-3 v-11.999999999999996 a0,0 0 0 1 0,0 z" x="11.10660171779826" y="6.356601717798191" width="15.000000000000004" height="14.999999999999996" id="stroke-shape-render-5-2274f55a-3db1-80e1-8006-64252c9be9d1-0" style="fill: none; stroke-width: 4; stroke: rgb(0, 29, 89); stroke-opacity: 1;"/></defs><use href="#stroke-shape-render-5-2274f55a-3db1-80e1-8006-64252c9be9d1-0" clip-path="url('#inner-stroke-render-5-2274f55a-3db1-80e1-8006-64252c9be9d1-0')"/></g></g></g></g></svg>