<svg width="24" xmlns="http://www.w3.org/2000/svg" height="24" id="screenshot-b4cc01b9-77b1-8076-8007-8ed61e50c796" viewBox="0 0 24 24" xmlns:xlink="http://www.w3.org/1999/xlink" fill="none" version="1.1"><g id="shape-b4cc01b9-77b1-8076-8007-8ed61e50c796" rx="0" ry="0"><g id="shape-b4cc01b9-77b1-8076-8007-8ed61e50c797" style="opacity: 1;"><g class="fills" id="fills-b4cc01b9-77b1-8076-8007-8ed61e50c797"><rect rx="0" ry="0" x="0" y="0" transform="matrix(1.000000, 0.000000, 0.000000, 1.000000, 0.000000, 0.000000)" width="24" height="24"/></g></g><g id="shape-c38cdfa7-2eae-8048-8007-925f1cb853d7"><g class="fills" id="fills-c38cdfa7-2eae-8048-8007-925f1cb853d7"><path d="M20.012664794921875,3.987335205078125C22.443069458007812,6.4177093505859375,20.012664794921875,15.329116821289062,16.77215576171875,18.56964111328125C13.53167724609375,21.810165405273438,8.6708984375,21.810134887695312,5.430381774902344,18.56964111328125C2.1898651123046875,15.329132080078125,2.1898727416992188,10.468353271484375,5.430381774902344,7.22784423828125C8.670867919921875,3.9873199462890625,17.582275390625,1.55694580078125,20.012664794921875,3.987335205078125M11,11.5C10.172134399414062,11.5,9.5,12.172134399414062,9.5,13C9.5,13.827865600585938,10.172134399414062,14.5,11,14.5C11.827865600585938,14.5,12.5,13.827865600585938,12.5,13C12.5,12.172134399414062,11.827865600585938,11.5,11,11.5" style="fill: rgb(183, 226, 255); fill-opacity: 1;"/></g><g id="strokes-2d3a77b0-6970-8058-8007-925f4b92c5c9-c38cdfa7-2eae-8048-8007-925f1cb853d7" class="strokes"><g class="inner-stroke-shape"><defs><clipPath id="inner-stroke-render-3-c38cdfa7-2eae-8048-8007-925f1cb853d7-0"><use href="#stroke-shape-render-3-c38cdfa7-2eae-8048-8007-925f1cb853d7-0"/></clipPath><path d="M20.012664794921875,3.987335205078125C22.443069458007812,6.4177093505859375,20.012664794921875,15.329116821289062,16.77215576171875,18.56964111328125C13.53167724609375,21.810165405273438,8.6708984375,21.810134887695312,5.430381774902344,18.56964111328125C2.1898651123046875,15.329132080078125,2.1898727416992188,10.468353271484375,5.430381774902344,7.22784423828125C8.670867919921875,3.9873199462890625,17.582275390625,1.55694580078125,20.012664794921875,3.987335205078125M11,11.5C10.172134399414062,11.5,9.5,12.172134399414062,9.5,13C9.5,13.827865600585938,10.172134399414062,14.5,11,14.5C11.827865600585938,14.5,12.5,13.827865600585938,12.5,13C12.5,12.172134399414062,11.827865600585938,11.5,11,11.5" id="stroke-shape-render-3-c38cdfa7-2eae-8048-8007-925f1cb853d7-0" style="fill: none; stroke-width: 3; stroke: rgb(0, 29, 89); stroke-opacity: 1;"/></defs><use href="#stroke-shape-render-3-c38cdfa7-2eae-8048-8007-925f1cb853d7-0" clip-path="url('#inner-stroke-render-3-c38cdfa7-2eae-8048-8007-925f1cb853d7-0')"/></g></g></g></g></svg>