<svg width="24" xmlns="http://www.w3.org/2000/svg" height="24" id="screenshot-44ccd83a-4c58-8094-8008-34cf836c6097" viewBox="0 0 24 24" xmlns:xlink="http://www.w3.org/1999/xlink" fill="none" version="1.1"><g id="shape-44ccd83a-4c58-8094-8008-34cf836c6097" rx="0" ry="0"><g id="shape-44ccd83a-4c58-8094-8008-34cf836c6098" style="opacity: 1;"><g class="fills" id="fills-44ccd83a-4c58-8094-8008-34cf836c6098"><rect rx="0" ry="0" x="0" y="0" transform="matrix(1.000000, 0.000000, 0.000000, 1.000000, 0.000000, 0.000000)" width="24" height="24"/></g></g><g id="shape-f5863e23-c43c-8085-8008-3700ff944f44"><g class="fills" id="fills-f5863e23-c43c-8085-8008-3700ff944f44"><path d="M21.98822784423828,18L18.79913330078125,18.0015869140625L1.9991989135742188,18.009979248046875"/></g><g id="strokes-6dd113bc-573d-80b1-8008-37022d239ee4-f5863e23-c43c-8085-8008-3700ff944f44" class="strokes"><g class="stroke-shape"><path d="M21.98822784423828,18L18.79913330078125,18.0015869140625L1.9991989135742188,18.009979248046875" style="fill: none; stroke-width: 2; stroke: rgb(219, 80, 0); stroke-opacity: 1;"/></g></g></g><g id="shape-44ccd83a-4c58-8094-8008-34cf836c6099"><g class="fills" id="fills-44ccd83a-4c58-8094-8008-34cf836c6099"><path d="M15.75,12L19,17.5L22.25,12L15.75,12M24.20000457763672,24.955535888671875" style="fill: rgb(219, 80, 0); fill-opacity: 1;"/></g></g><g id="shape-44ccd83a-4c58-8094-8008-35229f26cc81"><g class="fills" id="fills-44ccd83a-4c58-8094-8008-35229f26cc81"><path d="M8.75,12L12,17.5L15.25,12L8.75,12M17.20000457763672,24.955535888671875" style="fill: rgb(219, 80, 0); fill-opacity: 1;"/></g></g><g id="shape-44ccd83a-4c58-8094-8008-3522a01123b1"><g class="fills" id="fills-44ccd83a-4c58-8094-8008-3522a01123b1"><path d="M1.75,12L5,17.5L8.25,12L1.75,12M10.200004577636719,24.955535888671875" style="fill: rgb(219, 80, 0); fill-opacity: 1;"/></g></g><g id="shape-44ccd83a-4c58-8094-8008-34cf836c609a"><g class="fills" id="fills-44ccd83a-4c58-8094-8008-34cf836c609a"><path d="M19.009994506835938,5L19.008399963378906,6.279296875L19,13"/></g><g id="strokes-6dd113bc-573d-80b1-8008-37022d254031-44ccd83a-4c58-8094-8008-34cf836c609a" class="strokes"><g class="stroke-shape"><path d="M19.009994506835938,5L19.008399963378906,6.279296875L19,13" style="fill: none; stroke-width: 2.5; stroke: rgb(219, 80, 0); stroke-opacity: 1;"/></g></g></g><g id="shape-44ccd83a-4c58-8094-8008-352281546f95"><g class="fills" id="fills-44ccd83a-4c58-8094-8008-352281546f95"><path d="M12.009994506835938,5L12.008399963378906,6.279296875L12,13"/></g><g id="strokes-6dd113bc-573d-80b1-8008-37022d2587af-44ccd83a-4c58-8094-8008-352281546f95" class="strokes"><g class="stroke-shape"><path d="M12.009994506835938,5L12.008399963378906,6.279296875L12,13" style="fill: none; stroke-width: 2.5; stroke: rgb(219, 80, 0); stroke-opacity: 1;"/></g></g></g><g id="shape-44ccd83a-4c58-8094-8008-352282d24d82"><g class="fills" id="fills-44ccd83a-4c58-8094-8008-352282d24d82"><path d="M5.0099945068359375,5L5.008399963378906,6.279296875L5,13"/></g><g id="strokes-6dd113bc-573d-80b1-8008-37022d261ba4-44ccd83a-4c58-8094-8008-352282d24d82" class="strokes"><g class="stroke-shape"><path d="M5.0099945068359375,5L5.008399963378906,6.279296875L5,13" style="fill: none; stroke-width: 2.5; stroke: rgb(219, 80, 0); stroke-opacity: 1;"/></g></g></g></g></svg>