<svg width="24" xmlns="http://www.w3.org/2000/svg" height="24" id="screenshot-44ccd83a-4c58-8094-8008-34cf836c6097" viewBox="0 0 24 24" xmlns:xlink="http://www.w3.org/1999/xlink" fill="none" version="1.1"><g id="shape-44ccd83a-4c58-8094-8008-34cf836c6097" rx="0" ry="0"><g id="shape-44ccd83a-4c58-8094-8008-34cf836c6098" style="opacity: 1;"><g class="fills" id="fills-44ccd83a-4c58-8094-8008-34cf836c6098"><rect rx="0" ry="0" x="0" y="0" transform="matrix(1.000000, 0.000000, 0.000000, 1.000000, 0.000000, 0.000000)" width="24" height="24"/></g></g><g id="shape-f5863e23-c43c-8085-8008-3700ff944f44"><g class="fills" id="fills-f5863e23-c43c-8085-8008-3700ff944f44"><path d="M20.989402770996094,18L18.119216918945312,18.0015869140625L2.999279022216797,18.009979248046875"/></g><g id="strokes-1ee21a4e-4026-801d-8008-50cc4ed0a87d-f5863e23-c43c-8085-8008-3700ff944f44" class="strokes"><g class="stroke-shape"><path d="M20.989402770996094,18L18.119216918945312,18.0015869140625L2.999279022216797,18.009979248046875" style="fill: none; stroke-width: 2; stroke: rgb(219, 80, 0); stroke-opacity: 1;"/></g></g></g><g id="shape-44ccd83a-4c58-8094-8008-34cf836c6099"><g class="fills" id="fills-44ccd83a-4c58-8094-8008-34cf836c6099"><path d="M15,12L18,17L21,12L15,12M22.800003051757812,23.77777099609375" style="fill: rgb(219, 80, 0); fill-opacity: 1;"/></g></g><g id="shape-44ccd83a-4c58-8094-8008-35229f26cc81"><g class="fills" id="fills-44ccd83a-4c58-8094-8008-35229f26cc81"><path d="M9,12L12,17L15,12L9,12M16.800003051757812,23.77777099609375" style="fill: rgb(219, 80, 0); fill-opacity: 1;"/></g></g><g id="shape-44ccd83a-4c58-8094-8008-3522a01123b1"><g class="fills" id="fills-44ccd83a-4c58-8094-8008-3522a01123b1"><path d="M3,12L6,17L9,12L3,12M10.800003051757812,23.77777099609375" style="fill: rgb(219, 80, 0); fill-opacity: 1;"/></g></g><g id="shape-44ccd83a-4c58-8094-8008-34cf836c609a"><g class="fills" id="fills-44ccd83a-4c58-8094-8008-34cf836c609a"><path d="M18.009994506835938,5L18.008399963378906,6.279296875L18,13"/></g><g id="strokes-1ee21a4e-4026-801d-8008-50cc4ed26bdd-44ccd83a-4c58-8094-8008-34cf836c609a" class="strokes"><g class="stroke-shape"><path d="M18.009994506835938,5L18.008399963378906,6.279296875L18,13" style="fill: none; stroke-width: 2.25; stroke: rgb(219, 80, 0); stroke-opacity: 1;"/></g></g></g><g id="shape-44ccd83a-4c58-8094-8008-352281546f95"><g class="fills" id="fills-44ccd83a-4c58-8094-8008-352281546f95"><path d="M12.009994506835938,5L12.008399963378906,6.279296875L12,13"/></g><g id="strokes-1ee21a4e-4026-801d-8008-50cc4ed2a640-44ccd83a-4c58-8094-8008-352281546f95" class="strokes"><g class="stroke-shape"><path d="M12.009994506835938,5L12.008399963378906,6.279296875L12,13" style="fill: none; stroke-width: 2.25; stroke: rgb(219, 80, 0); stroke-opacity: 1;"/></g></g></g><g id="shape-44ccd83a-4c58-8094-8008-352282d24d82"><g class="fills" id="fills-44ccd83a-4c58-8094-8008-352282d24d82"><path d="M6.0099945068359375,5L6.008399963378906,6.279296875L6,13"/></g><g id="strokes-1ee21a4e-4026-801d-8008-50cc4ed2d772-44ccd83a-4c58-8094-8008-352282d24d82" class="strokes"><g class="stroke-shape"><path d="M6.0099945068359375,5L6.008399963378906,6.279296875L6,13" style="fill: none; stroke-width: 2.25; stroke: rgb(219, 80, 0); stroke-opacity: 1;"/></g></g></g></g></svg>