<svg width="24" xmlns="http://www.w3.org/2000/svg" height="24" id="screenshot-b4cc01b9-77b1-8076-8007-8eaa338c5711" viewBox="0 0 24 24" xmlns:xlink="http://www.w3.org/1999/xlink" fill="none" version="1.1"><g id="shape-b4cc01b9-77b1-8076-8007-8eaa338c5711" rx="0" ry="0"><g id="shape-b4cc01b9-77b1-8076-8007-8eaa338c5712" style="opacity: 1;"><g class="fills" id="fills-b4cc01b9-77b1-8076-8007-8eaa338c5712"><rect rx="0" ry="0" x="0" y="0" transform="matrix(1.000000, 0.000000, 0.000000, 1.000000, 0.000000, 0.000000)" width="24" height="24"/></g></g><g id="shape-b4cc01b9-77b1-8076-8007-8eaa338c5713"><g class="fills" id="fills-b4cc01b9-77b1-8076-8007-8eaa338c5713"><path d="M11,19.75L20,19.75"/></g><g id="strokes-2756e297-fae5-80e1-8007-8f2395dae4c6-b4cc01b9-77b1-8076-8007-8eaa338c5713" class="strokes"><g class="stroke-shape"><path d="M11,19.75L20,19.75" style="fill: none; stroke-width: 1.5; stroke: rgb(0, 29, 89); stroke-opacity: 1;"/></g></g></g><g id="shape-b4cc01b9-77b1-8076-8007-8eaa338c5714"><g class="fills" id="fills-b4cc01b9-77b1-8076-8007-8eaa338c5714"><path d="M7.944291116568836,11.644291116568809 h3.4999999999999947 a3,3 0 0 1 3,3 v4.999999999999986 a0,0 0 0 1 0,0 h-11.499999999999995 a0,0 0 0 1 0,0 v-2.999999999999986 a5,5 0 0 1 5,-5 z" x="2.9442911165688366" y="11.644291116568809" transform="matrix(-0.707107, -0.707107, 0.707107, -0.707107, 3.779899, 32.854268)" width="11.499999999999995" height="7.999999999999986" style="fill: rgb(255, 237, 198); fill-opacity: 1;"/></g><g id="strokes-2756e297-fae5-80e1-8007-8f2395db86a0-b4cc01b9-77b1-8076-8007-8eaa338c5714" class="strokes"><g class="inner-stroke-shape" transform="matrix(-0.707107, -0.707107, 0.707107, -0.707107, 3.779899, 32.854268)"><defs><clipPath id="inner-stroke-render-4-b4cc01b9-77b1-8076-8007-8eaa338c5714-0"><use href="#stroke-shape-render-4-b4cc01b9-77b1-8076-8007-8eaa338c5714-0"/></clipPath><path d="M7.944291116568836,11.644291116568809 h3.4999999999999947 a3,3 0 0 1 3,3 v4.999999999999986 a0,0 0 0 1 0,0 h-11.499999999999995 a0,0 0 0 1 0,0 v-2.999999999999986 a5,5 0 0 1 5,-5 z" x="2.9442911165688366" y="11.644291116568809" width="11.499999999999995" height="7.999999999999986" id="stroke-shape-render-4-b4cc01b9-77b1-8076-8007-8eaa338c5714-0" style="fill: none; stroke-width: 3; stroke: rgb(0, 29, 89); stroke-opacity: 1;"/></defs><use href="#stroke-shape-render-4-b4cc01b9-77b1-8076-8007-8eaa338c5714-0" clip-path="url('#inner-stroke-render-4-b4cc01b9-77b1-8076-8007-8eaa338c5714-0')"/></g></g></g><g id="shape-b4cc01b9-77b1-8076-8007-8eaa338c5715"><g class="fills" id="fills-b4cc01b9-77b1-8076-8007-8eaa338c5715"><path d="M8.381727983645328,4.465674593052 h11.500000000000002 a0,0 0 0 1 0,0 v9.499999999999986 a2,2 0 0 1 -2,2 h-7.500000000000002 a2,2 0 0 1 -2,-2 v-9.499999999999986 a0,0 0 0 1 0,0 z" x="8.381727983645328" y="4.465674593052" transform="matrix(-0.707107, -0.707107, 0.707107, -0.707107, 16.900796, 27.431888)" width="11.500000000000002" height="11.499999999999986" style="fill: rgb(183, 226, 255); fill-opacity: 1;"/></g><g id="strokes-2756e297-fae5-80e1-8007-8f2395dc2895-b4cc01b9-77b1-8076-8007-8eaa338c5715" class="strokes"><g class="inner-stroke-shape" transform="matrix(-0.707107, -0.707107, 0.707107, -0.707107, 16.900796, 27.431888)"><defs><clipPath id="inner-stroke-render-5-b4cc01b9-77b1-8076-8007-8eaa338c5715-0"><use href="#stroke-shape-render-5-b4cc01b9-77b1-8076-8007-8eaa338c5715-0"/></clipPath><path d="M8.381727983645328,4.465674593052 h11.500000000000002 a0,0 0 0 1 0,0 v9.499999999999986 a2,2 0 0 1 -2,2 h-7.500000000000002 a2,2 0 0 1 -2,-2 v-9.499999999999986 a0,0 0 0 1 0,0 z" x="8.381727983645328" y="4.465674593052" width="11.500000000000002" height="11.499999999999986" id="stroke-shape-render-5-b4cc01b9-77b1-8076-8007-8eaa338c5715-0" style="fill: none; stroke-width: 3; stroke: rgb(0, 29, 89); stroke-opacity: 1;"/></defs><use href="#stroke-shape-render-5-b4cc01b9-77b1-8076-8007-8eaa338c5715-0" clip-path="url('#inner-stroke-render-5-b4cc01b9-77b1-8076-8007-8eaa338c5715-0')"/></g></g></g></g></svg>