<svg width="24" xmlns="http://www.w3.org/2000/svg" height="24" id="screenshot-b4cc01b9-77b1-8076-8007-8ece23f85f46" viewBox="0 0 24 24" xmlns:xlink="http://www.w3.org/1999/xlink" fill="none" version="1.1"><g id="shape-b4cc01b9-77b1-8076-8007-8ece23f85f46" rx="0" ry="0"><g id="shape-b4cc01b9-77b1-8076-8007-8ece23f85f47" style="opacity: 1;"><g class="fills" id="fills-b4cc01b9-77b1-8076-8007-8ece23f85f47"><rect rx="0" ry="0" x="0" y="0" transform="matrix(1.000000, 0.000000, 0.000000, 1.000000, 0.000000, 0.000000)" width="24" height="24"/></g></g><g id="shape-b4cc01b9-77b1-8076-8007-8ece23f85f48"><g class="fills" id="fills-b4cc01b9-77b1-8076-8007-8ece23f85f48"><path d="M10.25,3L13.75,3L14.521434783935547,5.468597412109375C15.203147888183594,5.73223876953125,15.83340072631836,6.0996246337890625,16.39279556274414,6.5513153076171875L18.919235229492188,5.984466552734375L20.669235229492188,9.015533447265625L18.916767120361328,10.918258666992188C18.971561431884766,11.2708740234375,19,11.63214111328125,19,12C19,12.36785888671875,18.971561431884766,12.7291259765625,18.916767120361328,13.081741333007812L20.669235229492188,14.984466552734375L18.919235229492188,18.015533447265625L16.39279556274414,17.448684692382812C15.83340072631836,17.900375366210938,15.203147888183594,18.26776123046875,14.521434783935547,18.531402587890625L13.75,21L10.25,21L9.478565216064453,18.531402587890625C8.796852111816406,18.26776123046875,8.16659927368164,17.900390625,7.607204437255859,17.448684692382812L5.080772399902344,18.015533447265625L3.3307723999023438,14.984466552734375L5.083230972290039,13.081741333007812C5.028436660766602,12.729141235351562,5,12.36785888671875,5,12C5,11.63214111328125,5.028436660766602,11.270858764648438,5.083230972290039,10.918258666992188L3.3307723999023438,9.015533447265625L5.080772399902344,5.984466552734375L7.607204437255859,6.5513153076171875C8.16659927368164,6.099609375,8.796852111816406,5.73223876953125,9.478565216064453,5.468597412109375L10.25,3M12,10.5C11.172126770019531,10.5,10.5,11.172134399414062,10.5,12C10.5,12.827865600585938,11.172126770019531,13.5,12,13.5C12.827873229980469,13.5,13.5,12.827865600585938,13.5,12C13.5,11.172134399414062,12.827873229980469,10.5,12,10.5" style="fill: rgb(183, 226, 255); fill-opacity: 1;"/></g><g id="strokes-318ce300-1cfa-8049-8007-8f24cadbe30b-b4cc01b9-77b1-8076-8007-8ece23f85f48" class="strokes"><g class="inner-stroke-shape"><defs><clipPath id="inner-stroke-render-3-b4cc01b9-77b1-8076-8007-8ece23f85f48-0"><use href="#stroke-shape-render-3-b4cc01b9-77b1-8076-8007-8ece23f85f48-0"/></clipPath><path d="M10.25,3L13.75,3L14.521434783935547,5.468597412109375C15.203147888183594,5.73223876953125,15.83340072631836,6.0996246337890625,16.39279556274414,6.5513153076171875L18.919235229492188,5.984466552734375L20.669235229492188,9.015533447265625L18.916767120361328,10.918258666992188C18.971561431884766,11.2708740234375,19,11.63214111328125,19,12C19,12.36785888671875,18.971561431884766,12.7291259765625,18.916767120361328,13.081741333007812L20.669235229492188,14.984466552734375L18.919235229492188,18.015533447265625L16.39279556274414,17.448684692382812C15.83340072631836,17.900375366210938,15.203147888183594,18.26776123046875,14.521434783935547,18.531402587890625L13.75,21L10.25,21L9.478565216064453,18.531402587890625C8.796852111816406,18.26776123046875,8.16659927368164,17.900390625,7.607204437255859,17.448684692382812L5.080772399902344,18.015533447265625L3.3307723999023438,14.984466552734375L5.083230972290039,13.081741333007812C5.028436660766602,12.729141235351562,5,12.36785888671875,5,12C5,11.63214111328125,5.028436660766602,11.270858764648438,5.083230972290039,10.918258666992188L3.3307723999023438,9.015533447265625L5.080772399902344,5.984466552734375L7.607204437255859,6.5513153076171875C8.16659927368164,6.099609375,8.796852111816406,5.73223876953125,9.478565216064453,5.468597412109375L10.25,3M12,10.5C11.172126770019531,10.5,10.5,11.172134399414062,10.5,12C10.5,12.827865600585938,11.172126770019531,13.5,12,13.5C12.827873229980469,13.5,13.5,12.827865600585938,13.5,12C13.5,11.172134399414062,12.827873229980469,10.5,12,10.5" id="stroke-shape-render-3-b4cc01b9-77b1-8076-8007-8ece23f85f48-0" style="fill: none; stroke-width: 3; stroke: rgb(0, 29, 89); stroke-opacity: 1;"/></defs><use href="#stroke-shape-render-3-b4cc01b9-77b1-8076-8007-8ece23f85f48-0" clip-path="url('#inner-stroke-render-3-b4cc01b9-77b1-8076-8007-8ece23f85f48-0')"/></g></g></g></g></svg>