<svg width="24" xmlns="http://www.w3.org/2000/svg" height="24" id="screenshot-190d8189-2796-8035-8007-9252e5c3a0ea" viewBox="0 0 24 24" xmlns:xlink="http://www.w3.org/1999/xlink" fill="none" version="1.1"><g id="shape-190d8189-2796-8035-8007-9252e5c3a0ea" rx="0" ry="0"><g id="shape-190d8189-2796-8035-8007-9252e5c3e815" style="opacity: 1;"><g class="fills" id="fills-190d8189-2796-8035-8007-9252e5c3e815"><rect rx="0" ry="0" x="0" y="0" transform="matrix(1.000000, 0.000000, 0.000000, 1.000000, 0.000000, 0.000000)" width="24" height="24"/></g></g><g id="shape-190d8189-2796-8035-8007-9252e5c3e816"><g class="fills" id="fills-190d8189-2796-8035-8007-9252e5c3e816"><ellipse cx="12" cy="12" rx="5" ry="5" transform="matrix(1.000000, 0.000000, 0.000000, 1.000000, 0.000000, 0.000000)" style="fill: rgb(0, 29, 89); fill-opacity: 1;"/></g></g><g id="shape-190d8189-2796-8035-8007-9252e5c3e817"><g class="fills" id="fills-190d8189-2796-8035-8007-9252e5c3e817"><path d="M19,5L5,19"/></g><g id="strokes-2017f1b0-5e94-804b-8008-1c88fa0fbe8b-190d8189-2796-8035-8007-9252e5c3e817" class="strokes"><g class="stroke-shape"><path d="M19,5L5,19" style="fill: none; stroke-width: 5; stroke: rgb(0, 29, 89); stroke-opacity: 1;"/></g></g></g><g id="shape-190d8189-2796-8035-8007-9252e5c3e818"><g class="fills" id="fills-190d8189-2796-8035-8007-9252e5c3e818"><path d="M5,5L19,19"/></g><g id="strokes-2017f1b0-5e94-804b-8008-1c88fa108c4c-190d8189-2796-8035-8007-9252e5c3e818" class="strokes"><g class="stroke-shape"><path d="M5,5L19,19" style="fill: none; stroke-width: 5; stroke: rgb(0, 29, 89); stroke-opacity: 1;"/></g></g></g><g id="shape-190d8189-2796-8035-8007-9252e5c3e819"><g class="fills" id="fills-190d8189-2796-8035-8007-9252e5c3e819"><ellipse cx="12" cy="12" rx="3.5" ry="3.5" transform="matrix(1.000000, 0.000000, 0.000000, 1.000000, 0.000000, 0.000000)" style="fill: rgb(183, 226, 255); fill-opacity: 1;"/></g></g><g id="shape-190d8189-2796-8035-8007-9252e5c3e81a"><g class="fills" id="fills-190d8189-2796-8035-8007-9252e5c3e81a"><path d="M18,6L6,18"/></g><g id="strokes-2017f1b0-5e94-804b-8008-1c88fa112e94-190d8189-2796-8035-8007-9252e5c3e81a" class="strokes"><g class="stroke-shape"><path d="M18,6L6,18" style="fill: none; stroke-width: 2; stroke: rgb(183, 226, 255); stroke-opacity: 1;"/></g></g></g><g id="shape-190d8189-2796-8035-8007-9252e5c3e81b"><g class="fills" id="fills-190d8189-2796-8035-8007-9252e5c3e81b"><path d="M6,6L18,18"/></g><g id="strokes-2017f1b0-5e94-804b-8008-1c88fa117a7f-190d8189-2796-8035-8007-9252e5c3e81b" class="strokes"><g class="stroke-shape"><path d="M6,6L18,18" style="fill: none; stroke-width: 2; stroke: rgb(183, 226, 255); stroke-opacity: 1;"/></g></g></g></g></svg>