<svg width="24" xmlns="http://www.w3.org/2000/svg" height="24" id="screenshot-b4cc01b9-77b1-8076-8007-8ee8cab8537e" viewBox="0 0 24 24" xmlns:xlink="http://www.w3.org/1999/xlink" fill="none" version="1.1"><g id="shape-b4cc01b9-77b1-8076-8007-8ee8cab8537e" rx="0" ry="0"><g id="shape-b4cc01b9-77b1-8076-8007-8ee8cab8537f" style="opacity: 1;"><g class="fills" id="fills-b4cc01b9-77b1-8076-8007-8ee8cab8537f"><rect rx="0" ry="0" x="0" y="0" transform="matrix(1.000000, 0.000000, 0.000000, 1.000000, 0.000000, 0.000000)" width="24" height="24"/></g></g><g id="shape-b4cc01b9-77b1-8076-8007-8ee8cab85381"><g class="fills" id="fills-b4cc01b9-77b1-8076-8007-8ee8cab85381"><path d="M6,18C5,18,4,17,4,16L6,10C6,9,7,8,8,8L16,8C17,8,18,9,18,10L20,16C20,17,19,18,18,18L6,18" style="fill: rgb(183, 226, 255); fill-opacity: 1;"/></g><g id="strokes-e709b19d-bcb7-804f-8007-8f24134c5c5f-b4cc01b9-77b1-8076-8007-8ee8cab85381" class="strokes"><g class="inner-stroke-shape"><defs><clipPath id="inner-stroke-render-3-b4cc01b9-77b1-8076-8007-8ee8cab85381-0"><use href="#stroke-shape-render-3-b4cc01b9-77b1-8076-8007-8ee8cab85381-0"/></clipPath><path d="M6,18C5,18,4,17,4,16L6,10C6,9,7,8,8,8L16,8C17,8,18,9,18,10L20,16C20,17,19,18,18,18L6,18" id="stroke-shape-render-3-b4cc01b9-77b1-8076-8007-8ee8cab85381-0" style="fill: none; stroke-width: 3; stroke: rgb(0, 29, 89); stroke-opacity: 1;"/></defs><use href="#stroke-shape-render-3-b4cc01b9-77b1-8076-8007-8ee8cab85381-0" clip-path="url('#inner-stroke-render-3-b4cc01b9-77b1-8076-8007-8ee8cab85381-0')"/></g></g></g><g id="shape-b4cc01b9-77b1-8076-8007-8eeda587312d"><g class="fills" id="fills-b4cc01b9-77b1-8076-8007-8eeda587312d"><ellipse cx="12" cy="6.5" rx="2.5" ry="2.5" transform="matrix(1.000000, 0.000000, 0.000000, 1.000000, 0.000000, 0.000000)"/></g><g id="strokes-e709b19d-bcb7-804f-8007-8f24134d597e-b4cc01b9-77b1-8076-8007-8eeda587312d" class="strokes"><g class="inner-stroke-shape" transform="matrix(1.000000, 0.000000, 0.000000, 1.000000, 0.000000, 0.000000)"><defs><clipPath id="inner-stroke-render-4-b4cc01b9-77b1-8076-8007-8eeda587312d-0"><use href="#stroke-shape-render-4-b4cc01b9-77b1-8076-8007-8eeda587312d-0"/></clipPath><ellipse cx="12" cy="6.5" rx="2.5" ry="2.5" id="stroke-shape-render-4-b4cc01b9-77b1-8076-8007-8eeda587312d-0" style="fill: none; stroke-width: 3; stroke: rgb(0, 29, 89); stroke-opacity: 1;"/></defs><use href="#stroke-shape-render-4-b4cc01b9-77b1-8076-8007-8eeda587312d-0" clip-path="url('#inner-stroke-render-4-b4cc01b9-77b1-8076-8007-8eeda587312d-0')"/></g></g></g></g></svg>