<svg width="24" xmlns="http://www.w3.org/2000/svg" height="24" id="screenshot-b4cc01b9-77b1-8076-8007-8ed61e50c796" viewBox="0 0 24 24" xmlns:xlink="http://www.w3.org/1999/xlink" fill="none" version="1.1"><g id="shape-b4cc01b9-77b1-8076-8007-8ed61e50c796" rx="0" ry="0"><g id="shape-b4cc01b9-77b1-8076-8007-8ed61e50c797" style="opacity: 1;"><g class="fills" id="fills-b4cc01b9-77b1-8076-8007-8ed61e50c797"><rect rx="0" ry="0" x="0" y="0" transform="matrix(1.000000, 0.000000, 0.000000, 1.000000, 0.000000, 0.000000)" width="24" height="24"/></g></g><g id="shape-5d8ec5dd-30d7-801b-8008-20518812631d"><g class="fills" id="fills-5d8ec5dd-30d7-801b-8008-20518812631d"><path d="M15,9L19,16L23,9L15,9M25.400001525878906,25.4888916015625" style="fill: rgb(219, 80, 0); fill-opacity: 1;"/></g></g><g id="shape-44ccd83a-4c58-8094-8008-3506bbb9286e"><g class="fills" id="fills-44ccd83a-4c58-8094-8008-3506bbb9286e"><path d="M9,15L5,8L1,15L9,15M-1.4000015258789062,-1.4888916015625" style="fill: rgb(219, 80, 0); fill-opacity: 1;"/></g></g><g id="shape-44ccd83a-4c58-8094-8008-350648a92bdc"><g class="fills" id="fills-44ccd83a-4c58-8094-8008-350648a92bdc"><path d="M8,5C8,5,11.685165405273438,2.4234466552734375,15.278617858886719,4.1804656982421875C19,6,19.548690795898438,9.991363525390625,19.548690795898438,9.991363525390625"/></g><g id="strokes-4d44b241-06d6-8061-8008-350f86b7a591-44ccd83a-4c58-8094-8008-350648a92bdc" class="strokes"><g class="stroke-shape"><path d="M8,5C8,5,11.685165405273438,2.4234466552734375,15.278617858886719,4.1804656982421875C19,6,19.548690795898438,9.991363525390625,19.548690795898438,9.991363525390625" style="fill: none; stroke-width: 3; stroke: rgb(219, 80, 0); stroke-opacity: 1;"/></g></g></g><g id="shape-44ccd83a-4c58-8094-8008-35076460ee92"><g class="fills" id="fills-44ccd83a-4c58-8094-8008-35076460ee92"><path d="M16,19C16,19,14,21,10,20C5.976219177246094,18.994110107421875,4.736213684082031,14.262542724609375,4.736213684082031,14.262542724609375"/></g><g id="strokes-4d44b241-06d6-8061-8008-350f86b85e9c-44ccd83a-4c58-8094-8008-35076460ee92" class="strokes"><g class="stroke-shape"><path d="M16,19C16,19,14,21,10,20C5.976219177246094,18.994110107421875,4.736213684082031,14.262542724609375,4.736213684082031,14.262542724609375" style="fill: none; stroke-width: 3; stroke: rgb(219, 80, 0); stroke-opacity: 1;"/></g></g></g><g id="shape-44ccd83a-4c58-8094-8008-3507ba1fa7ed"><g class="fills" id="fills-44ccd83a-4c58-8094-8008-3507ba1fa7ed"><ellipse cx="12" cy="12" rx="2" ry="2" transform="matrix(1.000000, 0.000000, 0.000000, 1.000000, 0.000000, 0.000000)" style="fill: rgb(219, 80, 0); fill-opacity: 1;"/></g></g></g></svg>