<svg width="24" xmlns="http://www.w3.org/2000/svg" height="24" id="screenshot-b4cc01b9-77b1-8076-8007-8ed61e50c796" viewBox="0 0 24 24" xmlns:xlink="http://www.w3.org/1999/xlink" fill="none" version="1.1"><g id="shape-b4cc01b9-77b1-8076-8007-8ed61e50c796" rx="0" ry="0"><g id="shape-b4cc01b9-77b1-8076-8007-8ed61e50c797" style="opacity: 1;"><g class="fills" id="fills-b4cc01b9-77b1-8076-8007-8ed61e50c797"><rect rx="0" ry="0" x="0" y="0" transform="matrix(1.000000, 0.000000, 0.000000, 1.000000, 0.000000, 0.000000)" width="24" height="24"/></g></g><g id="shape-5d8ec5dd-30d7-801b-8008-20518812631d"><g class="fills" id="fills-5d8ec5dd-30d7-801b-8008-20518812631d"><path d="M14.932929992675781,9.780975341796875L18.091461181640625,15.19561767578125L21.25,9.780975341796875L14.932929992675781,9.780975341796875M23.145118713378906,22.53546142578125" style="fill: rgb(219, 80, 0); fill-opacity: 1;"/></g></g><g id="shape-44ccd83a-4c58-8094-8008-3506bbb9286e"><g class="fills" id="fills-44ccd83a-4c58-8094-8008-3506bbb9286e"><path d="M9.067070007324219,14.293182373046875L5.908538818359375,8.8785400390625L2.75,14.293182373046875L9.067070007324219,14.293182373046875M0.8548812866210938,1.5387115478515625" style="fill: rgb(219, 80, 0); fill-opacity: 1;"/></g></g><g id="shape-44ccd83a-4c58-8094-8008-350648a92bdc"><g class="fills" id="fills-44ccd83a-4c58-8094-8008-350648a92bdc"><path d="M8.390243530273438,6.6224517822265625C8.390243530273438,6.6224517822265625,11.036323547363281,5.0278472900390625,13.804878234863281,5.7200164794921875C17.414634704589844,6.6224517822265625,18.31707000732422,10.232208251953125,18.31707000732422,10.232208251953125"/></g><g id="strokes-bf7d6837-97cd-80ae-8008-50cc57a1b4ac-44ccd83a-4c58-8094-8008-350648a92bdc" class="strokes"><g class="stroke-shape"><path d="M8.390243530273438,6.6224517822265625C8.390243530273438,6.6224517822265625,11.036323547363281,5.0278472900390625,13.804878234863281,5.7200164794921875C17.414634704589844,6.6224517822265625,18.31707000732422,10.232208251953125,18.31707000732422,10.232208251953125" style="fill: none; stroke-width: 2.5; stroke: rgb(219, 80, 0); stroke-opacity: 1;"/></g></g></g><g id="shape-44ccd83a-4c58-8094-8008-35076460ee92"><g class="fills" id="fills-44ccd83a-4c58-8094-8008-35076460ee92"><path d="M15.609756469726562,17.45172119140625C15.609756469726562,17.45172119140625,12.963668823242188,19.04632568359375,10.195121765136719,18.354156494140625C6.585365295410156,17.45172119140625,5.682929992675781,13.84197998046875,5.682929992675781,13.84197998046875"/></g><g id="strokes-bf7d6837-97cd-80ae-8008-50cc57a26175-44ccd83a-4c58-8094-8008-35076460ee92" class="strokes"><g class="stroke-shape"><path d="M15.609756469726562,17.45172119140625C15.609756469726562,17.45172119140625,12.963668823242188,19.04632568359375,10.195121765136719,18.354156494140625C6.585365295410156,17.45172119140625,5.682929992675781,13.84197998046875,5.682929992675781,13.84197998046875" style="fill: none; stroke-width: 2.5; stroke: rgb(219, 80, 0); stroke-opacity: 1;"/></g></g></g><g id="shape-44ccd83a-4c58-8094-8008-3507ba1fa7ed"><g class="fills" id="fills-44ccd83a-4c58-8094-8008-3507ba1fa7ed"><ellipse cx="12" cy="12" rx="1.5" ry="1.5" transform="matrix(1.000000, 0.000000, 0.000000, 1.000000, 0.000000, 0.000000)" style="fill: rgb(219, 80, 0); fill-opacity: 1;"/></g></g></g></svg>