<svg width="24" xmlns="http://www.w3.org/2000/svg" height="24" id="screenshot-b4cc01b9-77b1-8076-8007-8ed61e50c796" viewBox="0 0 24 24" xmlns:xlink="http://www.w3.org/1999/xlink" fill="none" version="1.1"><g id="shape-b4cc01b9-77b1-8076-8007-8ed61e50c796" rx="0" ry="0"><g id="shape-b4cc01b9-77b1-8076-8007-8ed61e50c797" style="opacity: 1;"><g class="fills" id="fills-b4cc01b9-77b1-8076-8007-8ed61e50c797"><rect rx="0" ry="0" x="0" y="0" transform="matrix(1.000000, 0.000000, 0.000000, 1.000000, 0.000000, 0.000000)" width="24" height="24"/></g></g><g id="shape-5d8ec5dd-30d7-801b-8008-20518812631d"><g class="fills" id="fills-5d8ec5dd-30d7-801b-8008-20518812631d"><path d="M15.25,9.5L18.75,15.5L22.25,9.5L15.25,9.5M24.349998474121094,23.633331298828125" style="fill: rgb(219, 80, 0); fill-opacity: 1;"/></g></g><g id="shape-44ccd83a-4c58-8094-8008-3506bbb9286e"><g class="fills" id="fills-44ccd83a-4c58-8094-8008-3506bbb9286e"><path d="M8.75,14.5L5.25,8.5L1.75,14.5L8.75,14.5M-0.34999847412109375,0.366668701171875" style="fill: rgb(219, 80, 0); fill-opacity: 1;"/></g></g><g id="shape-44ccd83a-4c58-8094-8008-350648a92bdc"><g class="fills" id="fills-44ccd83a-4c58-8094-8008-350648a92bdc"><path d="M8,6C8,6,10.932144165039062,4.233001708984375,14,5C18,6,19,10,19,10"/></g><g id="strokes-05d0b3d5-8507-80a1-8008-37167819ebf4-44ccd83a-4c58-8094-8008-350648a92bdc" class="strokes"><g class="stroke-shape"><path d="M8,6C8,6,10.932144165039062,4.233001708984375,14,5C18,6,19,10,19,10" style="fill: none; stroke-width: 2.5; stroke: rgb(219, 80, 0); stroke-opacity: 1;"/></g></g></g><g id="shape-44ccd83a-4c58-8094-8008-35076460ee92"><g class="fills" id="fills-44ccd83a-4c58-8094-8008-35076460ee92"><path d="M16,18C16,18,13.067848205566406,19.766998291015625,10,19C6,18,5,14,5,14"/></g><g id="strokes-05d0b3d5-8507-80a1-8008-3716781a985a-44ccd83a-4c58-8094-8008-35076460ee92" class="strokes"><g class="stroke-shape"><path d="M16,18C16,18,13.067848205566406,19.766998291015625,10,19C6,18,5,14,5,14" style="fill: none; stroke-width: 2.5; stroke: rgb(219, 80, 0); stroke-opacity: 1;"/></g></g></g><g id="shape-44ccd83a-4c58-8094-8008-3507ba1fa7ed"><g class="fills" id="fills-44ccd83a-4c58-8094-8008-3507ba1fa7ed"><ellipse cx="12" cy="12" rx="1.5" ry="1.5" transform="matrix(1.000000, 0.000000, 0.000000, 1.000000, 0.000000, 0.000000)" style="fill: rgb(219, 80, 0); fill-opacity: 1;"/></g></g></g></svg>