<svg width="24" xmlns="http://www.w3.org/2000/svg" height="24" id="screenshot-44ccd83a-4c58-8094-8008-34cf7f270e7c" viewBox="0 0 24 24" xmlns:xlink="http://www.w3.org/1999/xlink" fill="none" version="1.1"><g id="shape-44ccd83a-4c58-8094-8008-34cf7f270e7c" rx="0" ry="0"><g id="shape-44ccd83a-4c58-8094-8008-34cf7f270e7d" style="opacity: 1;"><g class="fills" id="fills-44ccd83a-4c58-8094-8008-34cf7f270e7d"><rect rx="0" ry="0" x="0" y="0" transform="matrix(1.000000, 0.000000, 0.000000, 1.000000, 0.000000, 0.000000)" width="24" height="24"/></g></g><g id="shape-8eb090a4-ab7d-80c6-8008-4e14b8670e62"><g class="fills" id="fills-8eb090a4-ab7d-80c6-8008-4e14b8670e62"><path d="M21,12L21,18.5C21,19.603836059570312,20.10382843017578,20.5,19,20.5L5,20.5C3.8961715698242188,20.5,3,19.603836059570312,3,18.5L3,12C3,7.0327606201171875,7.032764434814453,3,12,3C16.96723175048828,3,21,7.0327606201171875,21,12M12,10.5C11.172126770019531,10.5,10.5,11.172134399414062,10.5,12C10.5,12.827865600585938,11.172126770019531,13.5,12,13.5C12.827873229980469,13.5,13.5,12.827865600585938,13.5,12C13.5,11.172134399414062,12.827873229980469,10.5,12,10.5" style="fill: rgb(183, 226, 255); fill-opacity: 1;"/></g><g id="strokes-ae518cca-4090-80a8-8008-4e152a86be3a-8eb090a4-ab7d-80c6-8008-4e14b8670e62" class="strokes"><g class="inner-stroke-shape"><defs><clipPath id="inner-stroke-render-3-8eb090a4-ab7d-80c6-8008-4e14b8670e62-0"><use href="#stroke-shape-render-3-8eb090a4-ab7d-80c6-8008-4e14b8670e62-0"/></clipPath><path d="M21,12L21,18.5C21,19.603836059570312,20.10382843017578,20.5,19,20.5L5,20.5C3.8961715698242188,20.5,3,19.603836059570312,3,18.5L3,12C3,7.0327606201171875,7.032764434814453,3,12,3C16.96723175048828,3,21,7.0327606201171875,21,12M12,10.5C11.172126770019531,10.5,10.5,11.172134399414062,10.5,12C10.5,12.827865600585938,11.172126770019531,13.5,12,13.5C12.827873229980469,13.5,13.5,12.827865600585938,13.5,12C13.5,11.172134399414062,12.827873229980469,10.5,12,10.5" id="stroke-shape-render-3-8eb090a4-ab7d-80c6-8008-4e14b8670e62-0" style="fill: none; stroke-width: 3; stroke: rgb(0, 29, 89); stroke-opacity: 1;"/></defs><use href="#stroke-shape-render-3-8eb090a4-ab7d-80c6-8008-4e14b8670e62-0" clip-path="url('#inner-stroke-render-3-8eb090a4-ab7d-80c6-8008-4e14b8670e62-0')"/></g></g></g><g id="shape-44ccd83a-4c58-8094-8008-350ba90eb13e"><g class="fills" id="fills-44ccd83a-4c58-8094-8008-350ba90eb13e"><path d="M4,12L7,12"/></g><g id="strokes-ae518cca-4090-80a8-8008-4e152a87b015-44ccd83a-4c58-8094-8008-350ba90eb13e" class="strokes"><g class="stroke-shape"><defs><marker refX="3" fill-opacity="1" orient="auto-start-reverse" id="marker-render-4-round" viewBox="0 0 6 6" fill="#001d59" refY="3" markerWidth="6" markerHeight="6"><path d="M 3 2.5 A 0.5 0.5 0 0 1 3 3.5 "/></marker></defs><path d="M4,12L7,12" style="fill: none; stroke-width: 2; stroke: rgb(0, 29, 89); stroke-opacity: 1; marker-end: url(&quot;#marker-render-4-round&quot;);"/></g></g></g><g id="shape-44ccd83a-4c58-8094-8008-350ba90eb13f"><g class="fills" id="fills-44ccd83a-4c58-8094-8008-350ba90eb13f"><path d="M12,17L12,20"/></g><g id="strokes-ae518cca-4090-80a8-8008-4e152a88016f-44ccd83a-4c58-8094-8008-350ba90eb13f" class="strokes"><g class="stroke-shape"><defs><marker refX="3" fill-opacity="1" orient="auto-start-reverse" id="marker-render-5-round" viewBox="0 0 6 6" fill="#001d59" refY="3" markerWidth="6" markerHeight="6"><path d="M 3 2.5 A 0.5 0.5 0 0 1 3 3.5 "/></marker></defs><path d="M12,17L12,20" style="fill: none; stroke-width: 2; stroke: rgb(0, 29, 89); stroke-opacity: 1; marker-start: url(&quot;#marker-render-5-round&quot;);"/></g></g></g><g id="shape-44ccd83a-4c58-8094-8008-350bc4b508eb"><g class="fills" id="fills-44ccd83a-4c58-8094-8008-350bc4b508eb"><path d="M17,12L20,12"/></g><g id="strokes-ae518cca-4090-80a8-8008-4e152a88f2bc-44ccd83a-4c58-8094-8008-350bc4b508eb" class="strokes"><g class="stroke-shape"><defs><marker refX="3" fill-opacity="1" orient="auto-start-reverse" id="marker-render-6-round" viewBox="0 0 6 6" fill="#001d59" refY="3" markerWidth="6" markerHeight="6"><path d="M 3 2.5 A 0.5 0.5 0 0 1 3 3.5 "/></marker></defs><path d="M17,12L20,12" style="fill: none; stroke-width: 2; stroke: rgb(0, 29, 89); stroke-opacity: 1; marker-start: url(&quot;#marker-render-6-round&quot;);"/></g></g></g><g id="shape-44ccd83a-4c58-8094-8008-350bce2cd8dd"><g class="fills" id="fills-44ccd83a-4c58-8094-8008-350bce2cd8dd"><path d="M12,4L12,7"/></g><g id="strokes-ae518cca-4090-80a8-8008-4e152a891f9a-44ccd83a-4c58-8094-8008-350bce2cd8dd" class="strokes"><g class="stroke-shape"><defs><marker refX="3" fill-opacity="1" orient="auto-start-reverse" id="marker-render-7-round" viewBox="0 0 6 6" fill="#001d59" refY="3" markerWidth="6" markerHeight="6"><path d="M 3 2.5 A 0.5 0.5 0 0 1 3 3.5 "/></marker></defs><path d="M12,4L12,7" style="fill: none; stroke-width: 2; stroke: rgb(0, 29, 89); stroke-opacity: 1; marker-end: url(&quot;#marker-render-7-round&quot;);"/></g></g></g></g></svg>