<svg width="24" xmlns="http://www.w3.org/2000/svg" height="24" id="screenshot-44ccd83a-4c58-8094-8008-34cf7f270e7c" viewBox="0 0 24 24" xmlns:xlink="http://www.w3.org/1999/xlink" fill="none" version="1.1"><g id="shape-44ccd83a-4c58-8094-8008-34cf7f270e7c" rx="0" ry="0"><g id="shape-44ccd83a-4c58-8094-8008-34cf7f270e7d" style="opacity: 1;"><g class="fills" id="fills-44ccd83a-4c58-8094-8008-34cf7f270e7d"><rect rx="0" ry="0" x="0" y="0" transform="matrix(1.000000, 0.000000, 0.000000, 1.000000, 0.000000, 0.000000)" width="24" height="24"/></g></g><g id="shape-96b427ae-444e-80f5-8008-50cd9d451bcc"><g class="fills" id="fills-96b427ae-444e-80f5-8008-50cd9d451bcc"><path d="M2.5,12.5L2.5,11L2.6179733276367188,11C3.338024139404297,6.4684600830078125,7.267154693603516,3,12,3C16.73284149169922,3,20.661972045898438,6.4684600830078125,21.38202667236328,11L21.5,11L21.5,12.5L21.5,18.5C21.5,19.603836059570312,20.60382843017578,20.5,19.5,20.5L4.5,20.5C3.3961715698242188,20.5,2.5,19.603836059570312,2.5,18.5L2.5,12.5M2.5,22L12,22L12,22M12,10.5C11.172126770019531,10.5,10.5,11.172134399414062,10.5,12C10.5,12.827865600585938,11.172126770019531,13.5,12,13.5C12.827873229980469,13.5,13.5,12.827865600585938,13.5,12C13.5,11.172134399414062,12.827873229980469,10.5,12,10.5" style="fill: rgb(183, 226, 255); fill-opacity: 1;"/></g><g id="strokes-d38b25f6-1fde-80f9-8008-50ce5db6a69f-96b427ae-444e-80f5-8008-50cd9d451bcc" class="strokes"><g class="inner-stroke-shape"><defs><clipPath id="inner-stroke-render-3-96b427ae-444e-80f5-8008-50cd9d451bcc-0"><use href="#stroke-shape-render-3-96b427ae-444e-80f5-8008-50cd9d451bcc-0"/></clipPath><path d="M2.5,12.5L2.5,11L2.6179733276367188,11C3.338024139404297,6.4684600830078125,7.267154693603516,3,12,3C16.73284149169922,3,20.661972045898438,6.4684600830078125,21.38202667236328,11L21.5,11L21.5,12.5L21.5,18.5C21.5,19.603836059570312,20.60382843017578,20.5,19.5,20.5L4.5,20.5C3.3961715698242188,20.5,2.5,19.603836059570312,2.5,18.5L2.5,12.5M2.5,22L12,22L12,22M12,10.5C11.172126770019531,10.5,10.5,11.172134399414062,10.5,12C10.5,12.827865600585938,11.172126770019531,13.5,12,13.5C12.827873229980469,13.5,13.5,12.827865600585938,13.5,12C13.5,11.172134399414062,12.827873229980469,10.5,12,10.5" id="stroke-shape-render-3-96b427ae-444e-80f5-8008-50cd9d451bcc-0" style="fill: none; stroke-width: 3; stroke: rgb(0, 29, 89); stroke-opacity: 1;"/></defs><use href="#stroke-shape-render-3-96b427ae-444e-80f5-8008-50cd9d451bcc-0" clip-path="url('#inner-stroke-render-3-96b427ae-444e-80f5-8008-50cd9d451bcc-0')"/></g></g></g><g id="shape-96b427ae-444e-80f5-8008-50cb02ed7cac"><g class="fills" id="fills-96b427ae-444e-80f5-8008-50cb02ed7cac"><ellipse cx="17.5" cy="16.5" rx="0.75" ry="0.75" transform="matrix(1.000000, 0.000000, 0.000000, 1.000000, 0.000000, 0.000000)" style="fill: rgb(255, 237, 198); fill-opacity: 1;"/></g><g id="strokes-d38b25f6-1fde-80f9-8008-50ce5db78829-96b427ae-444e-80f5-8008-50cb02ed7cac" class="strokes"><g class="outer-stroke-shape"><defs><mask id="outer-stroke-render-4-96b427ae-444e-80f5-8008-50cb02ed7cac-0" x="15.335786437626904" y="14.335786437626904" width="4.32842712474619" height="4.32842712474619" maskUnits="userSpaceOnUse"><use href="#stroke-shape-render-4-96b427ae-444e-80f5-8008-50cb02ed7cac-0" style="fill: none; stroke: white; stroke-width: 2;"/><use href="#stroke-shape-render-4-96b427ae-444e-80f5-8008-50cb02ed7cac-0" style="fill: black; stroke: none;"/></mask><ellipse cx="17.5" cy="16.5" rx="0.75" ry="0.75" transform="matrix(1.000000, 0.000000, 0.000000, 1.000000, 0.000000, 0.000000)" id="stroke-shape-render-4-96b427ae-444e-80f5-8008-50cb02ed7cac-0"/></defs><use href="#stroke-shape-render-4-96b427ae-444e-80f5-8008-50cb02ed7cac-0" mask="url(#outer-stroke-render-4-96b427ae-444e-80f5-8008-50cb02ed7cac-0)" style="fill: none; stroke-width: 2; stroke: rgb(0, 29, 89); stroke-opacity: 1;"/><use href="#stroke-shape-render-4-96b427ae-444e-80f5-8008-50cb02ed7cac-0" style="fill: none; stroke-width: 1; stroke: none; stroke-opacity: 1;"/></g></g></g><g id="shape-96b427ae-444e-80f5-8008-50cb6c7b5f55"><g class="fills" id="fills-96b427ae-444e-80f5-8008-50cb6c7b5f55"><ellipse cx="6.5" cy="16.5" rx="0.75" ry="0.75" transform="matrix(1.000000, 0.000000, 0.000000, 1.000000, 0.000000, 0.000000)" style="fill: rgb(255, 237, 198); fill-opacity: 1;"/></g><g id="strokes-d38b25f6-1fde-80f9-8008-50ce5db874fa-96b427ae-444e-80f5-8008-50cb6c7b5f55" class="strokes"><g class="outer-stroke-shape"><defs><mask id="outer-stroke-render-5-96b427ae-444e-80f5-8008-50cb6c7b5f55-0" x="4.335786437626905" y="14.335786437626904" width="4.32842712474619" height="4.32842712474619" maskUnits="userSpaceOnUse"><use href="#stroke-shape-render-5-96b427ae-444e-80f5-8008-50cb6c7b5f55-0" style="fill: none; stroke: white; stroke-width: 2;"/><use href="#stroke-shape-render-5-96b427ae-444e-80f5-8008-50cb6c7b5f55-0" style="fill: black; stroke: none;"/></mask><ellipse cx="6.5" cy="16.5" rx="0.75" ry="0.75" transform="matrix(1.000000, 0.000000, 0.000000, 1.000000, 0.000000, 0.000000)" id="stroke-shape-render-5-96b427ae-444e-80f5-8008-50cb6c7b5f55-0"/></defs><use href="#stroke-shape-render-5-96b427ae-444e-80f5-8008-50cb6c7b5f55-0" mask="url(#outer-stroke-render-5-96b427ae-444e-80f5-8008-50cb6c7b5f55-0)" style="fill: none; stroke-width: 2; stroke: rgb(0, 29, 89); stroke-opacity: 1;"/><use href="#stroke-shape-render-5-96b427ae-444e-80f5-8008-50cb6c7b5f55-0" style="fill: none; stroke-width: 1; stroke: none; stroke-opacity: 1;"/></g></g></g><g id="shape-44ccd83a-4c58-8094-8008-350ba90eb13e"><g class="fills" id="fills-44ccd83a-4c58-8094-8008-350ba90eb13e"><path d="M4,12L7,12"/></g><g id="strokes-d38b25f6-1fde-80f9-8008-50ce5db91f01-44ccd83a-4c58-8094-8008-350ba90eb13e" class="strokes"><g class="stroke-shape"><defs><marker refX="3" fill-opacity="1" orient="auto-start-reverse" id="marker-render-6-round" viewBox="0 0 6 6" fill="#001d59" refY="3" markerWidth="6" markerHeight="6"><path d="M 3 2.5 A 0.5 0.5 0 0 1 3 3.5 "/></marker></defs><path d="M4,12L7,12" style="fill: none; stroke-width: 2; stroke: rgb(0, 29, 89); stroke-opacity: 1; marker-end: url(&quot;#marker-render-6-round&quot;);"/></g></g></g><g id="shape-44ccd83a-4c58-8094-8008-350bc4b508eb"><g class="fills" id="fills-44ccd83a-4c58-8094-8008-350bc4b508eb"><path d="M17,12L20,12"/></g><g id="strokes-d38b25f6-1fde-80f9-8008-50ce5db997e6-44ccd83a-4c58-8094-8008-350bc4b508eb" class="strokes"><g class="stroke-shape"><defs><marker refX="3" fill-opacity="1" orient="auto-start-reverse" id="marker-render-7-round" viewBox="0 0 6 6" fill="#001d59" refY="3" markerWidth="6" markerHeight="6"><path d="M 3 2.5 A 0.5 0.5 0 0 1 3 3.5 "/></marker></defs><path d="M17,12L20,12" style="fill: none; stroke-width: 2; stroke: rgb(0, 29, 89); stroke-opacity: 1; marker-start: url(&quot;#marker-render-7-round&quot;);"/></g></g></g><g id="shape-44ccd83a-4c58-8094-8008-350bce2cd8dd"><g class="fills" id="fills-44ccd83a-4c58-8094-8008-350bce2cd8dd"><path d="M12,4L12,7"/></g><g id="strokes-d38b25f6-1fde-80f9-8008-50ce5dba5061-44ccd83a-4c58-8094-8008-350bce2cd8dd" class="strokes"><g class="stroke-shape"><defs><marker refX="3" fill-opacity="1" orient="auto-start-reverse" id="marker-render-8-round" viewBox="0 0 6 6" fill="#001d59" refY="3" markerWidth="6" markerHeight="6"><path d="M 3 2.5 A 0.5 0.5 0 0 1 3 3.5 "/></marker></defs><path d="M12,4L12,7" style="fill: none; stroke-width: 2; stroke: rgb(0, 29, 89); stroke-opacity: 1; marker-end: url(&quot;#marker-render-8-round&quot;);"/></g></g></g></g></svg>