<svg width="24" xmlns="http://www.w3.org/2000/svg" height="24" id="screenshot-b4cc01b9-77b1-8076-8007-8ece2338974f" viewBox="0 0 24 24" xmlns:xlink="http://www.w3.org/1999/xlink" fill="none" version="1.1"><g id="shape-b4cc01b9-77b1-8076-8007-8ece2338974f" rx="0" ry="0"><g id="shape-b4cc01b9-77b1-8076-8007-8ece2338ec07" style="opacity: 1;"><g class="fills" id="fills-b4cc01b9-77b1-8076-8007-8ece2338ec07"><rect rx="0" ry="0" x="0" y="0" transform="matrix(1.000000, 0.000000, 0.000000, 1.000000, 0.000000, 0.000000)" width="24" height="24"/></g></g><g id="shape-72f34a22-e7f6-8000-8006-85b556efe800"><g class="fills" id="fills-72f34a22-e7f6-8000-8006-85b556efe800"><path d="M12,5C15.863405227661133,5,19,8.1365966796875,19,12C19,15.8634033203125,15.863405227661133,19,12,19C8.136594772338867,19,5,15.8634033203125,5,12C5,8.1365966796875,8.136594772338867,5,12,5M12,9.75C10.758191108703613,9.75,9.75,10.758193969726562,9.75,12C9.75,13.241806030273438,10.758191108703613,14.25,12,14.25C13.241808891296387,14.25,14.25,13.241806030273438,14.25,12C14.25,10.758193969726562,13.241808891296387,9.75,12,9.75" style="fill: rgb(255, 190, 128); fill-opacity: 1;"/></g><g id="strokes-b5167529-1547-80cf-8007-8f23b52ed67d-72f34a22-e7f6-8000-8006-85b556efe800" class="strokes"><g class="inner-stroke-shape"><defs><clipPath id="inner-stroke-render-3-72f34a22-e7f6-8000-8006-85b556efe800-0"><use href="#stroke-shape-render-3-72f34a22-e7f6-8000-8006-85b556efe800-0"/></clipPath><path d="M12,5C15.863405227661133,5,19,8.1365966796875,19,12C19,15.8634033203125,15.863405227661133,19,12,19C8.136594772338867,19,5,15.8634033203125,5,12C5,8.1365966796875,8.136594772338867,5,12,5M12,9.75C10.758191108703613,9.75,9.75,10.758193969726562,9.75,12C9.75,13.241806030273438,10.758191108703613,14.25,12,14.25C13.241808891296387,14.25,14.25,13.241806030273438,14.25,12C14.25,10.758193969726562,13.241808891296387,9.75,12,9.75" id="stroke-shape-render-3-72f34a22-e7f6-8000-8006-85b556efe800-0" style="fill: none; stroke-width: 3; stroke: rgb(0, 29, 89); stroke-opacity: 1;"/></defs><use href="#stroke-shape-render-3-72f34a22-e7f6-8000-8006-85b556efe800-0" clip-path="url('#inner-stroke-render-3-72f34a22-e7f6-8000-8006-85b556efe800-0')"/></g></g></g></g></svg>