<svg width="24" xmlns="http://www.w3.org/2000/svg" height="24" id="screenshot-a9bab321-2fa5-804a-8008-398c9936f672" viewBox="0 0 24 24" xmlns:xlink="http://www.w3.org/1999/xlink" fill="none" version="1.1"><g id="shape-a9bab321-2fa5-804a-8008-398c9936f672" rx="0" ry="0"><g id="shape-a9bab321-2fa5-804a-8008-398c9936f673" style="opacity: 1;"><g class="fills" id="fills-a9bab321-2fa5-804a-8008-398c9936f673"><rect rx="0" ry="0" x="0" y="0" transform="matrix(1.000000, 0.000000, 0.000000, 1.000000, 0.000000, 0.000000)" width="24" height="24"/></g></g><g id="shape-a9bab321-2fa5-804a-8008-39a0e69d8ce1"><g class="fills" id="fills-a9bab321-2fa5-804a-8008-39a0e69d8ce1"><path d="M3,1.5L3,21L22.5,21"/></g><g id="strokes-c583e344-d6b9-8074-8008-39a33a9086be-a9bab321-2fa5-804a-8008-39a0e69d8ce1" class="strokes"><g class="stroke-shape"><defs><marker refX="2" fill-opacity="0.25" orient="auto-start-reverse" id="marker-render-3-line-arrow" viewBox="0 0 3 6" fill="#001d59" refY="3" markerWidth="8.5" markerHeight="8.5"><path d="M 0.5 0.5 L 3 3 L 0.5 5.5 L 0 5 L 2 3 L 0 1 z"/></marker></defs><path d="M3,1.5L3,21L22.5,21" style="fill: none; stroke-width: 0.75; stroke: rgb(0, 29, 89); stroke-opacity: 0.25; marker-start: url(&quot;#marker-render-3-line-arrow&quot;); marker-end: url(&quot;#marker-render-3-line-arrow&quot;);"/></g></g></g><g id="shape-a9bab321-2fa5-804a-8008-39a008609571"><g class="fills" id="fills-a9bab321-2fa5-804a-8008-39a008609571"><ellipse cx="18.5" cy="11.5" rx="3.5" ry="3.5" transform="matrix(1.000000, 0.000000, 0.000000, 1.000000, 0.000000, 0.000000)"/></g><g id="strokes-c583e344-d6b9-8074-8008-39a33a918987-a9bab321-2fa5-804a-8008-39a008609571" class="strokes"><g class="inner-stroke-shape" transform="matrix(1.000000, 0.000000, 0.000000, 1.000000, 0.000000, 0.000000)"><defs><clipPath id="inner-stroke-render-4-a9bab321-2fa5-804a-8008-39a008609571-0"><use href="#stroke-shape-render-4-a9bab321-2fa5-804a-8008-39a008609571-0"/></clipPath><ellipse cx="18.5" cy="11.5" rx="3.5" ry="3.5" id="stroke-shape-render-4-a9bab321-2fa5-804a-8008-39a008609571-0" style="fill: none; stroke-width: 4; stroke: rgb(219, 80, 0); stroke-opacity: 1;"/></defs><use href="#stroke-shape-render-4-a9bab321-2fa5-804a-8008-39a008609571-0" clip-path="url('#inner-stroke-render-4-a9bab321-2fa5-804a-8008-39a008609571-0')"/></g></g></g><g id="shape-a9bab321-2fa5-804a-8008-39a008609572"><g class="fills" id="fills-a9bab321-2fa5-804a-8008-39a008609572"><path d="M3,12C6,4,8,5,10,12C12,19,15,20,18,13"/></g><g id="strokes-c583e344-d6b9-8074-8008-39a33a922681-a9bab321-2fa5-804a-8008-39a008609572" class="strokes"><g class="stroke-shape"><path d="M3,12C6,4,8,5,10,12C12,19,15,20,18,13" style="fill: none; stroke-width: 2; stroke: rgb(219, 80, 0); stroke-opacity: 1;"/></g></g></g></g></svg>