<svg width="24" xmlns="http://www.w3.org/2000/svg" height="24" id="screenshot-a9bab321-2fa5-804a-8008-398c9936f672" viewBox="0 0 24 24" xmlns:xlink="http://www.w3.org/1999/xlink" fill="none" version="1.1"><g id="shape-a9bab321-2fa5-804a-8008-398c9936f672" rx="0" ry="0"><g id="shape-a9bab321-2fa5-804a-8008-398c9936f673" style="opacity: 1;"><g class="fills" id="fills-a9bab321-2fa5-804a-8008-398c9936f673"><rect rx="0" ry="0" x="0" y="0" transform="matrix(1.000000, 0.000000, 0.000000, 1.000000, 0.000000, 0.000000)" width="24" height="24"/></g></g><g id="shape-a9bab321-2fa5-804a-8008-39a0e69d8ce1"><g class="fills" id="fills-a9bab321-2fa5-804a-8008-39a0e69d8ce1"><path d="M3.5,5L3.5,20.5L19,20.5"/></g><g id="strokes-f3834b6e-23d6-8045-8008-50cc60d88ca1-a9bab321-2fa5-804a-8008-39a0e69d8ce1" class="strokes"><g class="stroke-shape"><path d="M3.5,5L3.5,20.5L19,20.5" style="fill: none; stroke-width: 1; stroke: rgb(0, 29, 89); stroke-opacity: 0.25;"/></g></g></g><g id="shape-702344ad-ea5d-807c-8008-3c6f30965b6e"><g class="fills" id="fills-702344ad-ea5d-807c-8008-3c6f30965b6e"><path d="M19,18L23,20.5L19,23L19,18M28.422210693359375,24.5" style="fill: rgb(0, 29, 89); fill-opacity: 0.25;"/></g></g><g id="shape-702344ad-ea5d-807c-8008-3c6fb2fbe7be"><g class="fills" id="fills-702344ad-ea5d-807c-8008-3c6fb2fbe7be"><path d="M1,5L3.5,1L6,5L1,5M7.5,-4.422210693359375" style="fill: rgb(0, 29, 89); fill-opacity: 0.25;"/></g></g><g id="shape-a9bab321-2fa5-804a-8008-39a008609571"><g class="fills" id="fills-a9bab321-2fa5-804a-8008-39a008609571"><ellipse cx="18" cy="11.5" rx="3.5" ry="3.5" transform="matrix(1.000000, 0.000000, 0.000000, 1.000000, 0.000000, 0.000000)"/></g><g id="strokes-f3834b6e-23d6-8045-8008-50cc60da6d29-a9bab321-2fa5-804a-8008-39a008609571" class="strokes"><g class="inner-stroke-shape" transform="matrix(1.000000, 0.000000, 0.000000, 1.000000, 0.000000, 0.000000)"><defs><clipPath id="inner-stroke-render-6-a9bab321-2fa5-804a-8008-39a008609571-0"><use href="#stroke-shape-render-6-a9bab321-2fa5-804a-8008-39a008609571-0"/></clipPath><ellipse cx="18" cy="11.5" rx="3.5" ry="3.5" id="stroke-shape-render-6-a9bab321-2fa5-804a-8008-39a008609571-0" style="fill: none; stroke-width: 4; stroke: rgb(219, 80, 0); stroke-opacity: 1;"/></defs><use href="#stroke-shape-render-6-a9bab321-2fa5-804a-8008-39a008609571-0" clip-path="url('#inner-stroke-render-6-a9bab321-2fa5-804a-8008-39a008609571-0')"/></g></g></g><g id="shape-a9bab321-2fa5-804a-8008-39a008609572"><g class="fills" id="fills-a9bab321-2fa5-804a-8008-39a008609572"><path d="M3.5,12.436248779296875C6.200004577636719,5.423583984375,8.000007629394531,6.300140380859375,9.800003051757812,12.436248779296875C11.599990844726562,18.57232666015625,14.299995422363281,19.44891357421875,17,13.31280517578125"/></g><g id="strokes-f3834b6e-23d6-8045-8008-50cc60dad2bc-a9bab321-2fa5-804a-8008-39a008609572" class="strokes"><g class="stroke-shape"><path d="M3.5,12.436248779296875C6.200004577636719,5.423583984375,8.000007629394531,6.300140380859375,9.800003051757812,12.436248779296875C11.599990844726562,18.57232666015625,14.299995422363281,19.44891357421875,17,13.31280517578125" style="fill: none; stroke-width: 2; stroke: rgb(219, 80, 0); stroke-opacity: 1;"/></g></g></g></g></svg>