<svg width="24.5" xmlns="http://www.w3.org/2000/svg" height="24" id="screenshot-a9bab321-2fa5-804a-8008-398c9936f672" viewBox="0 0 24.5 24" xmlns:xlink="http://www.w3.org/1999/xlink" fill="none" version="1.1"><g id="shape-a9bab321-2fa5-804a-8008-398c9936f672" rx="0" ry="0"><g id="shape-a9bab321-2fa5-804a-8008-398c9936f673" style="opacity: 1;"><g class="fills" id="fills-a9bab321-2fa5-804a-8008-398c9936f673"><rect rx="0" ry="0" x="0" y="0" transform="matrix(1.000000, 0.000000, 0.000000, 1.000000, 0.000000, 0.000000)" width="24" height="24"/></g></g><g id="shape-a9bab321-2fa5-804a-8008-39a0e69d8ce1"><g class="fills" id="fills-a9bab321-2fa5-804a-8008-39a0e69d8ce1"><path d="M3.5,4L3.5,20.5L20,20.5"/></g><g id="strokes-9a19f985-2476-80f4-8008-3c76e28f2944-a9bab321-2fa5-804a-8008-39a0e69d8ce1" class="strokes"><g class="stroke-shape"><path d="M3.5,4L3.5,20.5L20,20.5" style="fill: none; stroke-width: 1; stroke: rgb(0, 29, 89); stroke-opacity: 0.25;"/></g></g></g><g id="shape-702344ad-ea5d-807c-8008-3c6f30965b6e"><g class="fills" id="fills-702344ad-ea5d-807c-8008-3c6f30965b6e"><path d="M20,18L24,20.5L20,23L20,18M29.422210693359375,24.5" style="fill: rgb(0, 29, 89); fill-opacity: 0.25;"/></g></g><g id="shape-702344ad-ea5d-807c-8008-3c6fb2fbe7be"><g class="fills" id="fills-702344ad-ea5d-807c-8008-3c6fb2fbe7be"><path d="M1,4L3.5,0L6,4L1,4M7.5,-5.422210693359375" style="fill: rgb(0, 29, 89); fill-opacity: 0.25;"/></g></g><g id="shape-a9bab321-2fa5-804a-8008-39a008609571"><g class="fills" id="fills-a9bab321-2fa5-804a-8008-39a008609571"><ellipse cx="18.5" cy="11.5" rx="3.5" ry="3.5" transform="matrix(1.000000, 0.000000, 0.000000, 1.000000, 0.000000, 0.000000)"/></g><g id="strokes-9a19f985-2476-80f4-8008-3c76e290a800-a9bab321-2fa5-804a-8008-39a008609571" class="strokes"><g class="inner-stroke-shape" transform="matrix(1.000000, 0.000000, 0.000000, 1.000000, 0.000000, 0.000000)"><defs><clipPath id="inner-stroke-render-6-a9bab321-2fa5-804a-8008-39a008609571-0"><use href="#stroke-shape-render-6-a9bab321-2fa5-804a-8008-39a008609571-0"/></clipPath><ellipse cx="18.5" cy="11.5" rx="3.5" ry="3.5" id="stroke-shape-render-6-a9bab321-2fa5-804a-8008-39a008609571-0" style="fill: none; stroke-width: 4; stroke: rgb(219, 80, 0); stroke-opacity: 1;"/></defs><use href="#stroke-shape-render-6-a9bab321-2fa5-804a-8008-39a008609571-0" clip-path="url('#inner-stroke-render-6-a9bab321-2fa5-804a-8008-39a008609571-0')"/></g></g></g><g id="shape-a9bab321-2fa5-804a-8008-39a008609572"><g class="fills" id="fills-a9bab321-2fa5-804a-8008-39a008609572"><path d="M3.5,12C6.400001525878906,4,8.333335876464844,5,10.266670227050781,12C12.199996948242188,19,15.099998474121094,20,18,13"/></g><g id="strokes-9a19f985-2476-80f4-8008-3c76e2910f74-a9bab321-2fa5-804a-8008-39a008609572" class="strokes"><g class="stroke-shape"><path d="M3.5,12C6.400001525878906,4,8.333335876464844,5,10.266670227050781,12C12.199996948242188,19,15.099998474121094,20,18,13" style="fill: none; stroke-width: 2; stroke: rgb(219, 80, 0); stroke-opacity: 1;"/></g></g></g></g></svg>