<svg width="24" height="24" viewBox="0 0 24 24" fill="none" xmlns="http://www.w3.org/2000/svg">
<rect x="0.5" y="4.5" width="23" height="15" rx="7.5" stroke="#193A6C" stroke-opacity="0.3"/>
<path d="M3.66412 16V14.908C4.36612 14.2407 4.98579 13.6383 5.52312 13.101C6.06912 12.555 6.49379 12.0567 6.79712 11.606C7.10045 11.1467 7.25212 10.722 7.25212 10.332C7.25212 9.92467 7.14379 9.617 6.92712 9.409C6.71912 9.19234 6.43745 9.084 6.08212 9.084C5.78745 9.084 5.51879 9.17067 5.27612 9.344C5.04212 9.50867 4.82112 9.70367 4.61312 9.929L3.57312 8.902C3.98045 8.46867 4.39645 8.14367 4.82112 7.927C5.24579 7.70167 5.75279 7.589 6.34212 7.589C6.88812 7.589 7.36479 7.69734 7.77212 7.914C8.17945 8.13067 8.49579 8.43834 8.72112 8.837C8.95512 9.227 9.07212 9.68634 9.07212 10.215C9.07212 10.6743 8.94212 11.1467 8.68212 11.632C8.43079 12.1087 8.10579 12.5897 7.70712 13.075C7.30845 13.5517 6.88379 14.024 6.43312 14.492C6.64112 14.466 6.87512 14.4443 7.13512 14.427C7.39512 14.401 7.62045 14.388 7.81112 14.388H9.47512V16H3.66412Z" fill="#193A6C"/>
<path d="M12.0013 11.944C11.672 11.944 11.3946 11.8313 11.1693 11.606C10.9526 11.372 10.8443 11.086 10.8443 10.748C10.8443 10.4013 10.9526 10.1153 11.1693 9.89C11.3946 9.656 11.672 9.539 12.0013 9.539C12.3306 9.539 12.6036 9.656 12.8203 9.89C13.0456 10.1153 13.1583 10.4013 13.1583 10.748C13.1583 11.086 13.0456 11.372 12.8203 11.606C12.6036 11.8313 12.3306 11.944 12.0013 11.944ZM12.0013 16.156C11.672 16.156 11.3946 16.0433 11.1693 15.818C10.9526 15.584 10.8443 15.298 10.8443 14.96C10.8443 14.6133 10.9526 14.3273 11.1693 14.102C11.3946 13.868 11.672 13.751 12.0013 13.751C12.3306 13.751 12.6036 13.868 12.8203 14.102C13.0456 14.3273 13.1583 14.6133 13.1583 14.96C13.1583 15.298 13.0456 15.584 12.8203 15.818C12.6036 16.0433 12.3306 16.156 12.0013 16.156Z" fill="#193A6C"/>
<path d="M14.8587 16V14.453H16.6527V9.682H15.1057V8.499C15.5564 8.41234 15.9377 8.30834 16.2497 8.187C16.5617 8.06567 16.8651 7.91834 17.1597 7.745H18.5637V14.453H20.1107V16H14.8587Z" fill="#193A6C"/>
</svg>
