<svg width="32" xmlns="http://www.w3.org/2000/svg" height="32" id="screenshot-72f34a22-e7f6-8000-8006-859672bb7b23" viewBox="0 0 32 32" xmlns:xlink="http://www.w3.org/1999/xlink" fill="none" version="1.1"><g id="shape-72f34a22-e7f6-8000-8006-859672bb7b23" rx="0" ry="0"><g id="shape-dc07f3cc-dac9-80fb-8006-6a189dfe4a40" style="opacity: 1;"><g class="fills" id="fills-dc07f3cc-dac9-80fb-8006-6a189dfe4a40"><rect rx="3" ry="3" x="0" y="0" transform="matrix(1.000000, 0.000000, 0.000000, 1.000000, 0.000000, 0.000000)" width="32" height="32"/></g></g><g id="shape-72f34a22-e7f6-8000-8006-8593ac4eb943"><g class="fills" id="fills-72f34a22-e7f6-8000-8006-8593ac4eb943"><path d="M20.5,11C16.5,11,18,11,14,11C14,11,14,11,14,11C14,11,8,11,8,17C8,23,14,23,14,23C17.4285888671875,23,17.5714111328125,23,21,23" color="#000" fill="none" stroke-linecap="round" stroke-linejoin="round" style="fill: none;"/></g><g color="#000" fill="none" stroke-linecap="round" stroke-linejoin="round" id="strokes-65d98cc3-9644-8032-8006-85adca0fa267-72f34a22-e7f6-8000-8006-8593ac4eb943" class="strokes"><g class="stroke-shape"><path d="M20.5,11C16.5,11,18,11,14,11C14,11,14,11,14,11C14,11,8,11,8,17C8,23,14,23,14,23C17.4285888671875,23,17.5714111328125,23,21,23" style="fill: none; stroke-width: 2; stroke: rgb(0, 29, 89); stroke-opacity: 1;"/></g></g></g><g id="shape-72f34a22-e7f6-8000-8006-859468843041"><g class="fills" id="fills-72f34a22-e7f6-8000-8006-859468843041"><path d="M17,6.699999809265137L24.3636474609375,11.199999809265137L17,15.700000762939453L17,6.699999809265137" style="fill: rgb(0, 29, 89); fill-opacity: 1;"/></g></g></g></svg>