<svg width="24" xmlns="http://www.w3.org/2000/svg" height="24" id="screenshot-b4cc01b9-77b1-8076-8007-8ea99b481915" viewBox="0 0 24 24" xmlns:xlink="http://www.w3.org/1999/xlink" fill="none" version="1.1"><g id="shape-b4cc01b9-77b1-8076-8007-8ea99b481915" rx="0" ry="0"><g id="shape-b4cc01b9-77b1-8076-8007-8ea99b481916" style="opacity: 1;"><g class="fills" id="fills-b4cc01b9-77b1-8076-8007-8ea99b481916"><rect rx="0" ry="0" x="0" y="0" transform="matrix(1.000000, 0.000000, 0.000000, 1.000000, 0.000000, 0.000000)" width="23.999999999999993" height="24"/></g></g><g id="shape-702344ad-ea5d-807c-8008-3c74f21d02ce"><g class="fills" id="fills-702344ad-ea5d-807c-8008-3c74f21d02ce"><path d="M19,6C19,7,19,18,19,19L19,19L19,19C19,23,12,23,9,22C6,21,5.9999847412109375,19.00000762939453,4,15C3,13,4.890590667724609,10.335906982421875,6,12C8,15,8,15,8,15C8,14,8,5,8,5C8,5,8.5,4,9.5,4C10.5,4,11,5,11,5L11,12L12,12L12,3C12,3,12.440948486328125,2,13.5,2C14.440948486328125,2.0000076293945312,15,3,15,3L15,12L16,12L16,6C16,6,16.5,5,17.5,5C18.5,5,19,6,19,6" style="fill: rgb(0, 29, 89); fill-opacity: 1;"/></g></g></g></svg>