<svg width="24" xmlns="http://www.w3.org/2000/svg" height="24" id="screenshot-b4cc01b9-77b1-8076-8007-8ea99b481915" viewBox="0 0 24 24" xmlns:xlink="http://www.w3.org/1999/xlink" fill="none" version="1.1"><g id="shape-b4cc01b9-77b1-8076-8007-8ea99b481915" rx="0" ry="0"><g id="shape-b4cc01b9-77b1-8076-8007-8ea99b481916" style="opacity: 1;"><g class="fills" id="fills-b4cc01b9-77b1-8076-8007-8ea99b481916"><rect rx="0" ry="0" x="0" y="0" transform="matrix(1.000000, 0.000000, 0.000000, 1.000000, 0.000000, 0.000000)" width="24" height="24"/></g></g><g id="shape-b4cc01b9-77b1-8076-8007-8eab200ba7b1"><g class="fills" id="fills-b4cc01b9-77b1-8076-8007-8eab200ba7b1"><path d="M15,15L21.5,16L19.5,18L21,20L20,21L18,19.5L16,21.5L15,15" style="fill: rgb(0, 29, 89); fill-opacity: 1;"/></g></g><g id="shape-b4cc01b9-77b1-8076-8007-8eaa7a329976"><g class="fills" id="fills-b4cc01b9-77b1-8076-8007-8eaa7a329976"><path d="M10,19.00000762939453L14,19.00000762939453"/></g><g id="strokes-38559f55-dc93-80d7-8007-8f23a6f960a5-b4cc01b9-77b1-8076-8007-8eaa7a329976" class="strokes"><g class="stroke-shape"><path d="M10,19.00000762939453L14,19.00000762939453" style="fill: none; stroke-width: 2; stroke: rgb(0, 29, 89); stroke-opacity: 1;"/></g></g></g><g id="shape-b4cc01b9-77b1-8076-8007-8eab0687b1d2"><g class="fills" id="fills-b4cc01b9-77b1-8076-8007-8eab0687b1d2"><path d="M19,10L19,14"/></g><g id="strokes-38559f55-dc93-80d7-8007-8f23a6fa2459-b4cc01b9-77b1-8076-8007-8eab0687b1d2" class="strokes"><g class="stroke-shape"><path d="M19,10L19,14" style="fill: none; stroke-width: 2; stroke: rgb(0, 29, 89); stroke-opacity: 1;"/></g></g></g><g id="shape-b4cc01b9-77b1-8076-8007-8eaae538107e"><g class="fills" id="fills-b4cc01b9-77b1-8076-8007-8eaae538107e"><path d="M5,10L5,14"/></g><g id="strokes-38559f55-dc93-80d7-8007-8f23a6faaab6-b4cc01b9-77b1-8076-8007-8eaae538107e" class="strokes"><g class="stroke-shape"><path d="M5,10L5,14" style="fill: none; stroke-width: 2; stroke: rgb(0, 29, 89); stroke-opacity: 1;"/></g></g></g><g id="shape-b4cc01b9-77b1-8076-8007-8eaaa6c7cb11"><g class="fills" id="fills-b4cc01b9-77b1-8076-8007-8eaaa6c7cb11"><path d="M10,5.000007629394531L14,5.000007629394531"/></g><g id="strokes-38559f55-dc93-80d7-8007-8f23a6fae010-b4cc01b9-77b1-8076-8007-8eaaa6c7cb11" class="strokes"><g class="stroke-shape"><path d="M10,5.000007629394531L14,5.000007629394531" style="fill: none; stroke-width: 2; stroke: rgb(0, 29, 89); stroke-opacity: 1;"/></g></g></g><g id="shape-b4cc01b9-77b1-8076-8007-8eaa7a65d794"><g class="fills" id="fills-b4cc01b9-77b1-8076-8007-8eaa7a65d794"><path d="M8,19C5.75,19,5.5,19,5.25,18.75C5,18.5,5,18.25,5,16"/></g><g id="strokes-38559f55-dc93-80d7-8007-8f23a6fb0e6c-b4cc01b9-77b1-8076-8007-8eaa7a65d794" class="strokes"><g class="stroke-shape"><path d="M8,19C5.75,19,5.5,19,5.25,18.75C5,18.5,5,18.25,5,16" style="fill: none; stroke-width: 2; stroke: rgb(0, 29, 89); stroke-opacity: 1;"/></g></g></g><g id="shape-b4cc01b9-77b1-8076-8007-8eb0a585d0db"><g class="fills" id="fills-b4cc01b9-77b1-8076-8007-8eb0a585d0db"><path d="M16,5C18.25,5,18.5,5,18.75,5.25C19,5.5,19,5.75,19,8"/></g><g id="strokes-38559f55-dc93-80d7-8007-8f23a6fb80e0-b4cc01b9-77b1-8076-8007-8eb0a585d0db" class="strokes"><g class="stroke-shape"><path d="M16,5C18.25,5,18.5,5,18.75,5.25C19,5.5,19,5.75,19,8" style="fill: none; stroke-width: 2; stroke: rgb(0, 29, 89); stroke-opacity: 1;"/></g></g></g><g id="shape-b4cc01b9-77b1-8076-8007-8eb0a5d41c9b"><g class="fills" id="fills-b4cc01b9-77b1-8076-8007-8eb0a5d41c9b"><path d="M5,8C5,5.75,5,5.5,5.25,5.25C5.5,5,5.75,5,8,5"/></g><g id="strokes-38559f55-dc93-80d7-8007-8f23a6fbed5b-b4cc01b9-77b1-8076-8007-8eb0a5d41c9b" class="strokes"><g class="stroke-shape"><path d="M5,8C5,5.75,5,5.5,5.25,5.25C5.5,5,5.75,5,8,5" style="fill: none; stroke-width: 2; stroke: rgb(0, 29, 89); stroke-opacity: 1;"/></g></g></g></g></svg>