<svg width="24" xmlns="http://www.w3.org/2000/svg" height="24" id="screenshot-b4cc01b9-77b1-8076-8007-8f03097d164c" viewBox="0 0 24 24" xmlns:xlink="http://www.w3.org/1999/xlink" fill="none" version="1.1"><g id="shape-b4cc01b9-77b1-8076-8007-8f03097d164c" rx="0" ry="0"><g id="shape-b4cc01b9-77b1-8076-8007-8f03097d164d" style="opacity: 1;"><g class="fills" id="fills-b4cc01b9-77b1-8076-8007-8f03097d164d"><rect rx="0" ry="0" x="0" y="0" transform="matrix(1.000000, 0.000000, 0.000000, 1.000000, 0.000000, 0.000000)" width="24" height="24"/></g></g><g id="shape-b4cc01b9-77b1-8076-8007-8f03097d164e"><g class="fills" id="fills-b4cc01b9-77b1-8076-8007-8f03097d164e"><path d="M3,8C3,6.896171569824219,3.896169662475586,6,5,6L19,6C20.10382843017578,6,21,6.896171569824219,21,8L21,16C21,17.10382843017578,20.10382843017578,18,19,18L5,18C3.896169662475586,18,3,17.10382843017578,3,16L3,8M8,10.510002136230469L8,13.489997863769531C8,13.495521545410156,8.00448226928711,13.5,8.009998321533203,13.5L15.990001678466797,13.5C15.99551773071289,13.5,16,13.495521545410156,16,13.489997863769531L16,10.510002136230469C16,10.504478454589844,15.99551773071289,10.5,15.990001678466797,10.5L8.009998321533203,10.5C8.00448226928711,10.5,8,10.504478454589844,8,10.510002136230469" style="fill: rgb(255, 190, 128); fill-opacity: 1;"/></g><g id="strokes-a20beae8-b689-80fb-8007-8f23ca7d936c-b4cc01b9-77b1-8076-8007-8f03097d164e" class="strokes"><g class="inner-stroke-shape"><defs><clipPath id="inner-stroke-render-3-b4cc01b9-77b1-8076-8007-8f03097d164e-0"><use href="#stroke-shape-render-3-b4cc01b9-77b1-8076-8007-8f03097d164e-0"/></clipPath><path d="M3,8C3,6.896171569824219,3.896169662475586,6,5,6L19,6C20.10382843017578,6,21,6.896171569824219,21,8L21,16C21,17.10382843017578,20.10382843017578,18,19,18L5,18C3.896169662475586,18,3,17.10382843017578,3,16L3,8M8,10.510002136230469L8,13.489997863769531C8,13.495521545410156,8.00448226928711,13.5,8.009998321533203,13.5L15.990001678466797,13.5C15.99551773071289,13.5,16,13.495521545410156,16,13.489997863769531L16,10.510002136230469C16,10.504478454589844,15.99551773071289,10.5,15.990001678466797,10.5L8.009998321533203,10.5C8.00448226928711,10.5,8,10.504478454589844,8,10.510002136230469" id="stroke-shape-render-3-b4cc01b9-77b1-8076-8007-8f03097d164e-0" style="fill: none; stroke-width: 3; stroke: rgb(0, 29, 89); stroke-opacity: 1;"/></defs><use href="#stroke-shape-render-3-b4cc01b9-77b1-8076-8007-8f03097d164e-0" clip-path="url('#inner-stroke-render-3-b4cc01b9-77b1-8076-8007-8f03097d164e-0')"/></g></g></g></g></svg>