<svg width="24" xmlns="http://www.w3.org/2000/svg" height="24" id="screenshot-44ccd83a-4c58-8094-8008-351d1d8a87c3" viewBox="0 0 24 24" xmlns:xlink="http://www.w3.org/1999/xlink" fill="none" version="1.1"><g id="shape-44ccd83a-4c58-8094-8008-351d1d8a87c3" rx="0" ry="0"><g id="shape-44ccd83a-4c58-8094-8008-351d1d8a87c4" style="opacity: 1;"><g class="fills" id="fills-44ccd83a-4c58-8094-8008-351d1d8a87c4"><rect rx="0" ry="0" x="0" y="0" transform="matrix(0.000000, -1.000000, 1.000000, 0.000000, 0.000000, 24.000000)" width="24" height="24"/></g></g><g id="shape-8d70176b-7f93-807c-8008-9f641aba92d3"><g class="fills" id="fills-8d70176b-7f93-807c-8008-9f641aba92d3"><path d="M5,19C3,12,4,6,8,6C14,6,10,18,16,18C20,18,21,12,19,5"/></g><g id="strokes-2432f93f-6cbf-80c3-8008-9f66de9b9b14-8d70176b-7f93-807c-8008-9f641aba92d3" class="strokes"><g class="stroke-shape"><path d="M5,19C3,12,4,6,8,6C14,6,10,18,16,18C20,18,21,12,19,5" style="fill: none; stroke-width: 2; stroke: rgb(0, 29, 89); stroke-opacity: 1; stroke-linecap: round;"/></g></g></g><g id="shape-8d70176b-7f93-807c-8008-9f6579912941"><g class="fills" id="fills-8d70176b-7f93-807c-8008-9f6579912941"><ellipse cx="19" cy="5" rx="2.5" ry="2.5" transform="matrix(1.000000, 0.000000, 0.000000, 1.000000, 0.000000, 0.000000)" style="fill: rgb(0, 29, 89); fill-opacity: 1;"/></g></g><g id="shape-8d70176b-7f93-807c-8008-9f658553f9c8"><g class="fills" id="fills-8d70176b-7f93-807c-8008-9f658553f9c8"><ellipse cx="5" cy="19" rx="2.5" ry="2.5" transform="matrix(1.000000, 0.000000, 0.000000, 1.000000, 0.000000, 0.000000)" style="fill: rgb(0, 29, 89); fill-opacity: 1;"/></g></g></g></svg>