<svg width="149" height="33" viewBox="0 0 149 33" fill="none" xmlns="http://www.w3.org/2000/svg">
<rect width="32" height="32" rx="10" fill="#E64D00"/>
<line y1="13.5" x2="32" y2="13.5" stroke="black"/>
<line y1="18.5" x2="32" y2="18.5" stroke="black"/>
<rect y="14" width="32" height="4" fill="#B8E7FF"/>
<rect x="5.5" y="11.5" width="21" height="9" rx="2.5" fill="#FFB2B2" stroke="black"/>
<rect x="25.5738" y="3.61774" width="16.0102" height="4.2" transform="rotate(120 25.5738 3.61774)" fill="#B8E7FF" stroke="black"/>
<circle cx="16" cy="16" r="5.5" fill="#B8E7FF" stroke="black"/>
<circle cx="16" cy="16" r="3" fill="#FFB2B2" stroke="black"/>
<path d="M51.6477 9.42045C51.5568 8.50379 51.1667 7.79167 50.4773 7.28409C49.7879 6.77651 48.8523 6.52273 47.6705 6.52273C46.8674 6.52273 46.1894 6.63636 45.6364 6.86364C45.0833 7.08333 44.6591 7.39015 44.3636 7.78409C44.0758 8.17803 43.9318 8.625 43.9318 9.125C43.9167 9.54167 44.0038 9.9053 44.1932 10.2159C44.3902 10.5265 44.6591 10.7955 45 11.0227C45.3409 11.2424 45.7348 11.4356 46.1818 11.6023C46.6288 11.7614 47.1061 11.8977 47.6136 12.0114L49.7045 12.5114C50.7197 12.7386 51.6515 13.0417 52.5 13.4205C53.3485 13.7992 54.0833 14.2652 54.7045 14.8182C55.3258 15.3712 55.8068 16.0227 56.1477 16.7727C56.4962 17.5227 56.6742 18.3826 56.6818 19.3523C56.6742 20.7765 56.3106 22.0114 55.5909 23.0568C54.8788 24.0947 53.8485 24.9015 52.5 25.4773C51.1591 26.0455 49.5417 26.3295 47.6477 26.3295C45.7689 26.3295 44.1326 26.0417 42.7386 25.4659C41.3523 24.8902 40.2689 24.0379 39.4886 22.9091C38.7159 21.7727 38.3106 20.3674 38.2727 18.6932H43.0341C43.0871 19.4735 43.3106 20.125 43.7045 20.6477C44.1061 21.1629 44.6402 21.553 45.3068 21.8182C45.9811 22.0758 46.7424 22.2045 47.5909 22.2045C48.4242 22.2045 49.1477 22.0833 49.7614 21.8409C50.3826 21.5985 50.8636 21.2614 51.2045 20.8295C51.5455 20.3977 51.7159 19.9015 51.7159 19.3409C51.7159 18.8182 51.5606 18.3788 51.25 18.0227C50.947 17.6667 50.5 17.3636 49.9091 17.1136C49.3258 16.8636 48.6098 16.6364 47.7614 16.4318L45.2273 15.7955C43.2652 15.3182 41.7159 14.572 40.5795 13.5568C39.4432 12.5417 38.8788 11.1742 38.8864 9.45454C38.8788 8.04545 39.2538 6.81439 40.0114 5.76136C40.7765 4.70833 41.8258 3.88636 43.1591 3.29545C44.4924 2.70454 46.0076 2.40909 47.7045 2.40909C49.4318 2.40909 50.9394 2.70454 52.2273 3.29545C53.5227 3.88636 54.5303 4.70833 55.25 5.76136C55.9697 6.81439 56.3409 8.03409 56.3636 9.42045H51.6477ZM64.7415 2.72727V26H59.9006V2.72727H64.7415ZM68.6193 26V8.54545H73.4602V26H68.6193ZM71.0511 6.29545C70.3314 6.29545 69.714 6.05682 69.1989 5.57954C68.6913 5.0947 68.4375 4.51515 68.4375 3.84091C68.4375 3.17424 68.6913 2.60227 69.1989 2.125C69.714 1.64015 70.3314 1.39773 71.0511 1.39773C71.7708 1.39773 72.3845 1.64015 72.892 2.125C73.4072 2.60227 73.6648 3.17424 73.6648 3.84091C73.6648 4.51515 73.4072 5.0947 72.892 5.57954C72.3845 6.05682 71.7708 6.29545 71.0511 6.29545ZM83.7699 26.2841C82.4441 26.2841 81.2434 25.9432 80.1676 25.2614C79.0994 24.572 78.2509 23.5606 77.6222 22.2273C77.0009 20.8864 76.6903 19.2424 76.6903 17.2955C76.6903 15.2955 77.0123 13.6326 77.6562 12.3068C78.3002 10.9735 79.1563 9.97727 80.2244 9.31818C81.3002 8.65152 82.4782 8.31818 83.7585 8.31818C84.7358 8.31818 85.5502 8.48485 86.2017 8.81818C86.8608 9.14394 87.3911 9.55303 87.7926 10.0455C88.2017 10.5303 88.5123 11.0076 88.7244 11.4773H88.8722V2.72727H93.7017V26H88.929V23.2045H88.7244C88.4972 23.6894 88.1752 24.1705 87.7585 24.6477C87.3494 25.1174 86.8153 25.5076 86.1562 25.8182C85.5047 26.1288 84.7093 26.2841 83.7699 26.2841ZM85.304 22.4318C86.0843 22.4318 86.7434 22.2197 87.2812 21.7955C87.8267 21.3636 88.2434 20.7614 88.5312 19.9886C88.8267 19.2159 88.9744 18.3106 88.9744 17.2727C88.9744 16.2348 88.8305 15.3333 88.5426 14.5682C88.2547 13.803 87.8381 13.2121 87.2926 12.7955C86.7472 12.3788 86.0843 12.1705 85.304 12.1705C84.5085 12.1705 83.8381 12.3864 83.2926 12.8182C82.7472 13.25 82.3343 13.8485 82.054 14.6136C81.7737 15.3788 81.6335 16.2652 81.6335 17.2727C81.6335 18.2879 81.7737 19.1856 82.054 19.9659C82.3419 20.7386 82.7547 21.3447 83.2926 21.7841C83.8381 22.2159 84.5085 22.4318 85.304 22.4318ZM105.636 26.3409C103.841 26.3409 102.295 25.9773 101 25.25C99.7121 24.5152 98.7197 23.4773 98.0227 22.1364C97.3258 20.7879 96.9773 19.1932 96.9773 17.3523C96.9773 15.5568 97.3258 13.9811 98.0227 12.625C98.7197 11.2689 99.7008 10.2121 100.966 9.45454C102.239 8.69697 103.731 8.31818 105.443 8.31818C106.595 8.31818 107.667 8.50379 108.659 8.875C109.659 9.23864 110.53 9.78788 111.273 10.5227C112.023 11.2576 112.606 12.1818 113.023 13.2955C113.439 14.4015 113.648 15.697 113.648 17.1818V18.5114H98.9091V15.5114H109.091C109.091 14.8144 108.939 14.197 108.636 13.6591C108.333 13.1212 107.913 12.7008 107.375 12.3977C106.845 12.0871 106.227 11.9318 105.523 11.9318C104.788 11.9318 104.136 12.1023 103.568 12.4432C103.008 12.7765 102.568 13.2273 102.25 13.7955C101.932 14.3561 101.769 14.9811 101.761 15.6705V18.5227C101.761 19.3864 101.92 20.1326 102.239 20.7614C102.564 21.3902 103.023 21.875 103.614 22.2159C104.205 22.5568 104.905 22.7273 105.716 22.7273C106.254 22.7273 106.746 22.6515 107.193 22.5C107.64 22.3485 108.023 22.1212 108.341 21.8182C108.659 21.5152 108.902 21.1439 109.068 20.7045L113.545 21C113.318 22.0758 112.852 23.0152 112.148 23.8182C111.451 24.6136 110.549 25.2348 109.443 25.6818C108.345 26.1212 107.076 26.3409 105.636 26.3409ZM116.807 32.5455V8.54545H121.58V11.4773H121.795C122.008 11.0076 122.314 10.5303 122.716 10.0455C123.125 9.55303 123.655 9.14394 124.307 8.81818C124.966 8.48485 125.784 8.31818 126.761 8.31818C128.034 8.31818 129.208 8.65152 130.284 9.31818C131.36 9.97727 132.22 10.9735 132.864 12.3068C133.508 13.6326 133.83 15.2955 133.83 17.2955C133.83 19.2424 133.515 20.8864 132.886 22.2273C132.265 23.5606 131.417 24.572 130.341 25.2614C129.273 25.9432 128.076 26.2841 126.75 26.2841C125.811 26.2841 125.011 26.1288 124.352 25.8182C123.701 25.5076 123.167 25.1174 122.75 24.6477C122.333 24.1705 122.015 23.6894 121.795 23.2045H121.648V32.5455H116.807ZM121.545 17.2727C121.545 18.3106 121.689 19.2159 121.977 19.9886C122.265 20.7614 122.682 21.3636 123.227 21.7955C123.773 22.2197 124.436 22.4318 125.216 22.4318C126.004 22.4318 126.67 22.2159 127.216 21.7841C127.761 21.3447 128.174 20.7386 128.455 19.9659C128.742 19.1856 128.886 18.2879 128.886 17.2727C128.886 16.2652 128.746 15.3788 128.466 14.6136C128.186 13.8485 127.773 13.25 127.227 12.8182C126.682 12.3864 126.011 12.1705 125.216 12.1705C124.428 12.1705 123.761 12.3788 123.216 12.7955C122.678 13.2121 122.265 13.803 121.977 14.5682C121.689 15.3333 121.545 16.2348 121.545 17.2727Z" fill="#E64D00"/>
</svg>
