<svg width="32.87" xmlns="http://www.w3.org/2000/svg" height="32.053" id="screenshot-98fcbe81-ff45-809d-8006-32aef51dfdb0" viewBox="-0.87 0 32.87 32.053" xmlns:xlink="http://www.w3.org/1999/xlink" fill="none" version="1.1"><g id="shape-98fcbe81-ff45-809d-8006-32aef51dfdb0" rx="0" ry="0"><g id="shape-98fcbe81-ff45-809d-8006-32acc58d3722"><g class="fills" id="fills-98fcbe81-ff45-809d-8006-32acc58d3722"><rect rx="15.999999999999233" ry="15.999999999999233" x="0" y="0" transform="matrix(1.000000, 0.000000, 0.000000, 1.000000, 0.000000, 0.000000)" width="31.999999999998487" height="31.999999999998465" style="fill: rgb(219, 80, 0); fill-opacity: 1;"/></g></g><g id="shape-98fcbe81-ff45-809d-8006-32b050ecf51a"><g class="fills" id="fills-98fcbe81-ff45-809d-8006-32b050ecf51a"><path d="M31.513,12.122L0.239,18.770L0.200,18.587C0.068,17.762,0.000,16.915,0.000,16.053L0.000,16.053C0.000,15.121,0.080,14.207,0.233,13.319L29.288,7.143C30.296,8.643,31.057,10.322,31.513,12.122Z" style="fill: rgb(0, 29, 89); fill-opacity: 1;"/></g></g><g id="shape-98fcbe81-ff45-809d-8006-32aeddd4ca8c"><g class="fills" id="fills-98fcbe81-ff45-809d-8006-32aeddd4ca8c"><path d="M31.115,10.797L0.056,17.399C0.019,16.955,0.000,16.506,0.000,16.053L0.000,16.053C0.000,15.588,0.020,15.128,0.059,14.674L30.002,8.309C30.441,9.100,30.814,9.932,31.115,10.797Z" style="fill: rgb(183, 226, 255); fill-opacity: 1;"/></g></g><g id="shape-98fcbe81-ff45-809d-8006-32acc58d5aa8"><g class="frame-container-wrapper"><g class="frame-container-blur"><g class="frame-container-shadows"><g fill="none"><g class="fills" id="fills-98fcbe81-ff45-809d-8006-32acc58d5aa8"><rect rx="0" ry="0" x="7.999999999999616" y="17.999999999999147" width="16.00000000000182" height="9.333333333332888" transform="matrix(1.000000, 0.000000, 0.000000, 1.000000, 0.000000, 0.000000)" class="frame-background"/></g><g class="frame-children"><g id="shape-98fcbe81-ff45-809d-8006-32acc58d5aa9"><g class="fills" id="fills-98fcbe81-ff45-809d-8006-32acc58d5aa9"><path d="M8.000,22.000L12.000,27.333"/></g><g id="strokes-fe31844b-e946-8055-8006-33e349326bc3-98fcbe81-ff45-809d-8006-32acc58d5aa9" class="strokes"><g class="stroke-shape"><defs><marker refX="3" fill-opacity="1" orient="auto-start-reverse" id="marker-render-6-round" viewBox="0 0 6 6" fill="#001d59" refY="3" markerWidth="6" markerHeight="6"><path d="M 3 2.5 A 0.5 0.5 0 0 1 3 3.5 "/></marker></defs><path d="M8.000,22.000L12.000,27.333" style="fill: none; stroke-width: 1.5; stroke: rgb(0, 29, 89); stroke-opacity: 1; marker-end: url(&quot;#marker-render-6-round&quot;);"/></g></g></g><g id="shape-98fcbe81-ff45-809d-8006-32acc58d5aaa"><g class="fills" id="fills-98fcbe81-ff45-809d-8006-32acc58d5aaa"><path d="M12.000,22.000L16.000,27.333"/></g><g id="strokes-fe31844b-e946-8055-8006-33e349331097-98fcbe81-ff45-809d-8006-32acc58d5aaa" class="strokes"><g class="stroke-shape"><defs><marker refX="3" fill-opacity="1" orient="auto-start-reverse" id="marker-render-7-round" viewBox="0 0 6 6" fill="#001d59" refY="3" markerWidth="6" markerHeight="6"><path d="M 3 2.5 A 0.5 0.5 0 0 1 3 3.5 "/></marker></defs><path d="M12.000,22.000L16.000,27.333" style="fill: none; stroke-width: 1.5; stroke: rgb(0, 29, 89); stroke-opacity: 1; marker-end: url(&quot;#marker-render-7-round&quot;);"/></g></g></g><g id="shape-98fcbe81-ff45-809d-8006-32acc58d5aab"><g class="fills" id="fills-98fcbe81-ff45-809d-8006-32acc58d5aab"><path d="M16.000,22.000L20.000,27.333"/></g><g id="strokes-fe31844b-e946-8055-8006-33e34933766f-98fcbe81-ff45-809d-8006-32acc58d5aab" class="strokes"><g class="stroke-shape"><defs><marker refX="3" fill-opacity="1" orient="auto-start-reverse" id="marker-render-8-round" viewBox="0 0 6 6" fill="#001d59" refY="3" markerWidth="6" markerHeight="6"><path d="M 3 2.5 A 0.5 0.5 0 0 1 3 3.5 "/></marker></defs><path d="M16.000,22.000L20.000,27.333" style="fill: none; stroke-width: 1.5; stroke: rgb(0, 29, 89); stroke-opacity: 1; marker-end: url(&quot;#marker-render-8-round&quot;);"/></g></g></g><g id="shape-98fcbe81-ff45-809d-8006-32acc58d5aac"><g class="fills" id="fills-98fcbe81-ff45-809d-8006-32acc58d5aac"><path d="M20.000,22.000L24.000,27.333"/></g><g id="strokes-fe31844b-e946-8055-8006-33e34933a21d-98fcbe81-ff45-809d-8006-32acc58d5aac" class="strokes"><g class="stroke-shape"><defs><marker refX="3" fill-opacity="1" orient="auto-start-reverse" id="marker-render-9-round" viewBox="0 0 6 6" fill="#001d59" refY="3" markerWidth="6" markerHeight="6"><path d="M 3 2.5 A 0.5 0.5 0 0 1 3 3.5 "/></marker></defs><path d="M20.000,22.000L24.000,27.333" style="fill: none; stroke-width: 1.5; stroke: rgb(0, 29, 89); stroke-opacity: 1; marker-end: url(&quot;#marker-render-9-round&quot;);"/></g></g></g><g id="shape-98fcbe81-ff45-809d-8006-32acc58d5aad"><g class="fills" id="fills-98fcbe81-ff45-809d-8006-32acc58d5aad"><path d="M24.000,22.000L8.000,22.007"/></g><g id="strokes-fe31844b-e946-8055-8006-33e3493432be-98fcbe81-ff45-809d-8006-32acc58d5aad" class="strokes"><g class="stroke-shape"><path d="M24.000,22.000L8.000,22.007" style="fill: none; stroke-width: 1.5; stroke: rgb(0, 29, 89); stroke-opacity: 1; stroke-linecap: round;"/></g></g></g><g id="shape-98fcbe81-ff45-809d-8006-32acc58d5aae"><g class="fills" id="fills-98fcbe81-ff45-809d-8006-32acc58d5aae"><path d="M16.000,18.000L16.007,22.000"/></g><g id="strokes-fe31844b-e946-8055-8006-33e349345a5b-98fcbe81-ff45-809d-8006-32acc58d5aae" class="strokes"><g class="stroke-shape"><path d="M16.000,18.000L16.007,22.000" style="fill: none; stroke-width: 3; stroke: rgb(0, 29, 89); stroke-opacity: 1;"/></g></g></g></g></g></g></g></g></g><g id="shape-98fcbe81-ff45-809d-8006-32acc58d5aaf"><g class="fills" id="fills-98fcbe81-ff45-809d-8006-32acc58d5aaf"><rect rx="3" ry="3" x="6.835602727603948" y="7.831247117967706" transform="matrix(0.978148, -0.207912, 0.207912, 0.978148, -2.314436, 3.642104)" width="18.666666666665805" height="9.999999999999545" style="fill: rgb(255, 190, 128); fill-opacity: 1;"/></g></g><g id="shape-98fcbe81-ff45-809d-8006-32acc58d5ab0"><g class="fills" id="fills-98fcbe81-ff45-809d-8006-32acc58d5ab0"><path d="M6.416,11.837C6.186,10.758,6.877,9.695,7.956,9.465L22.302,6.416C23.382,6.186,24.445,6.877,24.675,7.956L25.922,13.825C26.152,14.905,25.461,15.968,24.382,16.197L10.035,19.247C8.956,19.476,7.893,18.786,7.663,17.706L6.416,11.837Z"/></g><g id="strokes-fe31844b-e946-8055-8006-33e34934fea5-98fcbe81-ff45-809d-8006-32acc58d5ab0" class="strokes"><g class="inner-stroke-shape"><defs><clipPath id="inner-stroke-render-13-98fcbe81-ff45-809d-8006-32acc58d5ab0-0"><use href="#stroke-shape-render-13-98fcbe81-ff45-809d-8006-32acc58d5ab0-0"/></clipPath><path d="M6.416,11.837C6.186,10.758,6.877,9.695,7.956,9.465L22.302,6.416C23.382,6.186,24.445,6.877,24.675,7.956L25.922,13.825C26.152,14.905,25.461,15.968,24.382,16.197L10.035,19.247C8.956,19.476,7.893,18.786,7.663,17.706L6.416,11.837Z" id="stroke-shape-render-13-98fcbe81-ff45-809d-8006-32acc58d5ab0-0" style="fill: none; stroke-width: 3; stroke: rgb(0, 29, 89); stroke-opacity: 1;"/></defs><use href="#stroke-shape-render-13-98fcbe81-ff45-809d-8006-32acc58d5ab0-0" clip-path="url('#inner-stroke-render-13-98fcbe81-ff45-809d-8006-32acc58d5ab0-0')"/></g></g></g><g id="shape-98fcbe81-ff45-809d-8006-32ad5f29445f"><g class="fills" id="fills-98fcbe81-ff45-809d-8006-32ad5f29445f"><path d="M12.792,18.660C10.768,17.515,9.400,15.343,9.400,12.853C9.400,11.364,9.889,9.988,10.715,8.878L19.340,7.045C21.365,8.190,22.733,10.363,22.733,12.853C22.733,14.341,22.244,15.717,21.418,16.827L12.792,18.660Z" style="fill: rgb(255, 190, 128); fill-opacity: 1;"/></g></g><g id="shape-98fcbe81-ff45-809d-8006-32acc58d5ab3"><g class="frame-container-wrapper"><g class="frame-container-blur"><g class="frame-container-shadows"><g fill="none"><g class="fills" id="fills-98fcbe81-ff45-809d-8006-32acc58d5ab3"><rect rx="0" ry="0" x="9.999999999999531" y="6.799999999999997" width="11.999999999999432" height="11.999999999999432" transform="matrix(1.000000, 0.000000, 0.000000, 1.000000, 0.000000, 0.000000)" class="frame-background"/></g><g class="frame-children"><g id="shape-98fcbe81-ff45-809d-8006-32acc58d5ab4"><g class="fills" id="fills-98fcbe81-ff45-809d-8006-32acc58d5ab4"><ellipse cx="15.999999999999247" cy="12.799999999999713" rx="5.999999999999716" ry="5.999999999999716" transform="matrix(1.000000, 0.000000, 0.000000, 1.000000, 0.000000, 0.000000)" style="fill: rgb(255, 190, 128); fill-opacity: 1;"/></g><g id="strokes-fe31844b-e946-8055-8006-33e34935c394-98fcbe81-ff45-809d-8006-32acc58d5ab4" class="strokes"><g class="inner-stroke-shape" transform="matrix(1.000000, 0.000000, 0.000000, 1.000000, 0.000000, 0.000000)"><defs><clipPath id="inner-stroke-render-16-98fcbe81-ff45-809d-8006-32acc58d5ab4-0"><use href="#stroke-shape-render-16-98fcbe81-ff45-809d-8006-32acc58d5ab4-0"/></clipPath><ellipse cx="15.999999999999247" cy="12.799999999999713" rx="5.999999999999716" ry="5.999999999999716" id="stroke-shape-render-16-98fcbe81-ff45-809d-8006-32acc58d5ab4-0" style="fill: none; stroke-width: 3; stroke: rgb(0, 29, 89); stroke-opacity: 1;"/></defs><use href="#stroke-shape-render-16-98fcbe81-ff45-809d-8006-32acc58d5ab4-0" clip-path="url('#inner-stroke-render-16-98fcbe81-ff45-809d-8006-32acc58d5ab4-0')"/></g></g></g><g id="shape-98fcbe81-ff45-809d-8006-32acc58d5ab5"><g class="fills" id="fills-98fcbe81-ff45-809d-8006-32acc58d5ab5"><ellipse cx="15.999999999999236" cy="12.799999999999713" rx="3.333333333333176" ry="3.3333333333331723" transform="matrix(1.000000, 0.000000, 0.000000, 1.000000, 0.000000, 0.000000)" style="fill: rgb(183, 226, 255); fill-opacity: 1;"/></g><g id="strokes-fe31844b-e946-8055-8006-33e3493639bc-98fcbe81-ff45-809d-8006-32acc58d5ab5" class="strokes"><g class="inner-stroke-shape" transform="matrix(1.000000, 0.000000, 0.000000, 1.000000, 0.000000, 0.000000)"><defs><clipPath id="inner-stroke-render-17-98fcbe81-ff45-809d-8006-32acc58d5ab5-0"><use href="#stroke-shape-render-17-98fcbe81-ff45-809d-8006-32acc58d5ab5-0"/></clipPath><ellipse cx="15.999999999999236" cy="12.799999999999713" rx="3.333333333333176" ry="3.3333333333331723" id="stroke-shape-render-17-98fcbe81-ff45-809d-8006-32acc58d5ab5-0" style="fill: none; stroke-width: 3; stroke: rgb(0, 29, 89); stroke-opacity: 1;"/></defs><use href="#stroke-shape-render-17-98fcbe81-ff45-809d-8006-32acc58d5ab5-0" clip-path="url('#inner-stroke-render-17-98fcbe81-ff45-809d-8006-32acc58d5ab5-0')"/></g></g></g></g></g></g></g></g></g></g></svg>