<svg width="150.277" xmlns="http://www.w3.org/2000/svg" height="44" id="screenshot-2d9a8024-4bd8-80a6-8006-7de18fc5e995" viewBox="-0.917 0 150.277 44" xmlns:xlink="http://www.w3.org/1999/xlink" fill="none" version="1.1"><g id="shape-2d9a8024-4bd8-80a6-8006-7de18fc5e995" rx="0" ry="0"><g id="shape-2d9a8024-4bd8-80a6-8006-7de8d654f9ac" width="98" height="33" rx="0" ry="0" style="fill: rgb(0, 0, 0);"><g id="shape-2d9a8024-4bd8-80a6-8006-7de8d65b3c6c"><g class="fills" id="fills-2d9a8024-4bd8-80a6-8006-7de8d65b3c6c"><path d="M61.12000274658203,33.5680046081543C59.3280029296875,33.5680046081543,57.61066436767578,33.33329391479492,55.96800231933594,32.86399459838867C54.32533264160156,32.3733024597168,53.00267028808594,31.743999481201172,52,30.975994110107422L53.760009765625,27.072002410888672C54.720001220703125,27.754695892333984,55.85066223144531,28.320003509521484,57.152008056640625,28.768001556396484C58.47467041015625,29.194698333740234,59.808006286621094,29.408000946044922,61.152008056640625,29.408000946044922C62.175987243652344,29.408000946044922,62.997283935546875,29.312007904052734,63.61598205566406,29.120006561279297C64.2559814453125,28.90670394897461,64.72528076171875,28.618694305419922,65.02398681640625,28.25600814819336C65.32268524169922,27.893306732177734,65.47198486328125,27.477306365966797,65.47198486328125,27.008007049560547C65.47198486328125,26.410701751708984,65.23728942871094,25.941295623779297,64.76799011230469,25.60000228881836C64.2986831665039,25.237300872802734,63.67998504638672,24.94930648803711,62.9119873046875,24.736003875732422C62.14398193359375,24.50130844116211,61.29066467285156,24.288005828857422,60.35200500488281,24.096004486083984C59.434661865234375,23.882701873779297,58.50666809082031,23.626705169677734,57.56800842285156,23.327999114990234C56.650665283203125,23.029300689697266,55.808006286621094,22.645305633544922,55.03999328613281,22.17599868774414C54.272003173828125,21.70669937133789,53.642669677734375,21.088001251220703,53.152008056640625,20.320003509521484C52.68266296386719,19.551998138427734,52.447998046875,18.57070541381836,52.447998046875,17.37600326538086C52.447998046875,16.096004486083984,52.789337158203125,14.933330535888672,53.47200012207031,13.888004302978516C54.17601013183594,12.821331024169922,55.221336364746094,11.97867202758789,56.608001708984375,11.360004425048828C58.01600646972656,10.72000503540039,59.7760009765625,10.400005340576172,61.88798522949219,10.400005340576172C63.295989990234375,10.400005340576172,64.68268585205078,10.570674896240234,66.04798889160156,10.911998748779297C67.41328430175781,11.231998443603516,68.61868286132812,11.722675323486328,69.66398620605469,12.38399887084961L68.0639877319336,16.320003509521484C67.01868438720703,15.722667694091797,65.97328186035156,15.285335540771484,64.92798614501953,15.007999420166016C63.88268280029297,14.709331512451172,62.85868835449219,14.560001373291016,61.855987548828125,14.560001373291016C60.85333251953125,14.560001373291016,60.032005310058594,14.67733383178711,59.392005920410156,14.911998748779297C58.75200653076172,15.146671295166016,58.2933349609375,15.456005096435547,58.01600646972656,15.84000015258789C57.73866271972656,16.20267105102539,57.600006103515625,16.629329681396484,57.600006103515625,17.119998931884766C57.600006103515625,17.696002960205078,57.83466339111328,18.165302276611328,58.30400085449219,18.528003692626953C58.77333068847656,18.869304656982422,59.392005920410156,19.14670181274414,60.160003662109375,19.360004425048828C60.928009033203125,19.573299407958984,61.77068328857422,19.786701202392578,62.68798828125,20.000003814697266C63.626686096191406,20.213298797607422,64.5546875,20.45870590209961,65.47198486328125,20.736003875732422C66.41068267822266,21.013301849365234,67.26398468017578,21.386699676513672,68.031982421875,21.855998992919922C68.79998779296875,22.325298309326172,69.41868591308594,22.94400405883789,69.88798522949219,23.71200180053711C70.3786849975586,24.48000717163086,70.62398529052734,25.450695037841797,70.62398529052734,26.624004364013672C70.62398529052734,27.882701873779297,70.27198791503906,29.034709930419922,69.56798553466797,30.079998016357422C68.86398315429688,31.125301361083984,67.8079833984375,31.967998504638672,66.39998626708984,32.60799789428711C65.0132827758789,33.24799728393555,63.25328063964844,33.5680046081543,61.12000274658203,33.5680046081543Z" style="fill: rgb(219, 80, 0);"/></g></g><g id="shape-2d9a8024-4bd8-80a6-8006-7de8d65bac1c"><g class="fills" id="fills-2d9a8024-4bd8-80a6-8006-7de8d65bac1c"><path d="M72.85428619384766,33.18400192260742L72.85428619384766,9.439998626708984L77.84628295898438,9.439998626708984L77.84628295898438,33.18400192260742L72.85428619384766,33.18400192260742Z" style="fill: rgb(219, 80, 0);"/></g></g><g id="shape-2d9a8024-4bd8-80a6-8006-7de8d65c7779"><g class="fills" id="fills-2d9a8024-4bd8-80a6-8006-7de8d65c7779"><path d="M81.519287109375,33.18400192260742L81.519287109375,15.967998504638672L86.51128387451172,15.967998504638672L86.51128387451172,33.18400192260742L81.519287109375,33.18400192260742ZM84.01528930664062,13.568004608154297C83.09788513183594,13.568004608154297,82.35128784179688,13.301334381103516,81.77528381347656,12.768001556396484C81.19928741455078,12.234668731689453,80.91128540039062,11.57332992553711,80.91128540039062,10.784000396728516C80.91128540039062,9.994670867919922,81.19928741455078,9.333332061767578,81.77528381347656,8.799999237060547C82.35128784179688,8.266674041748047,83.09788513183594,7.999996185302734,84.01528930664062,7.999996185302734C84.93258666992188,7.999996185302734,85.67928314208984,8.256000518798828,86.25527954101562,8.768001556396484C86.83128356933594,9.258670806884766,87.1192855834961,9.898670196533203,87.1192855834961,10.687999725341797C87.1192855834961,11.520000457763672,86.83128356933594,12.213329315185547,86.25527954101562,12.768001556396484C85.7005844116211,13.301334381103516,84.95388793945312,13.568004608154297,84.01528930664062,13.568004608154297Z" style="fill: rgb(219, 80, 0);"/></g></g><g id="shape-2d9a8024-4bd8-80a6-8006-7de8d65d3a0e"><g class="fills" id="fills-2d9a8024-4bd8-80a6-8006-7de8d65d3a0e"><path d="M97.57628631591797,33.439998626708984C95.95487976074219,33.439998626708984,94.49358367919922,33.07729721069336,93.1922836303711,32.35200119018555C91.89088439941406,31.605297088623047,90.85628509521484,30.57070541381836,90.08828735351562,29.247997283935547C89.34158325195312,27.925304412841797,88.9682846069336,26.36800765991211,88.9682846069336,24.576000213623047C88.9682846069336,22.762699127197266,89.34158325195312,21.194698333740234,90.08828735351562,19.872005462646484C90.85628509521484,18.549304962158203,91.89088439941406,17.52530288696289,93.1922836303711,16.799999237060547C94.49358367919922,16.07467269897461,95.95487976074219,15.71200180053711,97.57628631591797,15.71200180053711C99.02688598632812,15.71200180053711,100.29627990722656,16.032001495361328,101.38428497314453,16.672000885009766C102.4722900390625,17.312000274658203,103.31488037109375,18.282703399658203,103.91229248046875,19.584003448486328C104.50958251953125,20.885303497314453,104.80828857421875,22.549304962158203,104.80828857421875,24.576000213623047C104.80828857421875,26.581310272216797,104.52029418945312,28.245296478271484,103.94429016113281,29.568004608154297C103.3682861328125,30.869304656982422,102.53628540039062,31.840007781982422,101.44828796386719,32.48000717163086C100.38158416748047,33.1200065612793,99.09088134765625,33.439998626708984,97.57628631591797,33.439998626708984ZM98.4402847290039,29.344005584716797C99.25088500976562,29.344005584716797,99.98688507080078,29.15200424194336,100.64828491210938,28.768001556396484C101.30958557128906,28.38399887084961,101.83229064941406,27.840007781982422,102.21627807617188,27.135997772216797C102.62158203125,26.410701751708984,102.82427978515625,25.557308197021484,102.82427978515625,24.576000213623047C102.82427978515625,23.573299407958984,102.62158203125,22.72000503540039,102.21627807617188,22.016002655029297C101.83229064941406,21.312000274658203,101.30958557128906,20.768001556396484,100.64828491210938,20.38399887084961C99.98688507080078,20.000003814697266,99.25088500976562,19.808002471923828,98.4402847290039,19.808002471923828C97.60828399658203,19.808002471923828,96.86158752441406,20.000003814697266,96.20028686523438,20.38399887084961C95.53887939453125,20.768001556396484,95.00558471679688,21.312000274658203,94.60028076171875,22.016002655029297C94.2162857055664,22.72000503540039,94.02428436279297,23.573299407958984,94.02428436279297,24.576000213623047C94.02428436279297,25.557308197021484,94.2162857055664,26.410701751708984,94.60028076171875,27.135997772216797C95.00558471679688,27.840007781982422,95.53887939453125,28.38399887084961,96.20028686523438,28.768001556396484C96.86158752441406,29.15200424194336,97.60828399658203,29.344005584716797,98.4402847290039,29.344005584716797ZM102.95228576660156,33.18400192260742L102.95228576660156,29.663997650146484L103.04827880859375,24.544002532958984L102.72828674316406,19.456005096435547L102.72828674316406,9.439998626708984L107.72027587890625,9.439998626708984L107.72027587890625,33.18400192260742L102.95228576660156,33.18400192260742Z" style="fill: rgb(219, 80, 0);"/></g></g><g id="shape-2d9a8024-4bd8-80a6-8006-7de8d65dc391"><g class="fills" id="fills-2d9a8024-4bd8-80a6-8006-7de8d65dc391"><path d="M119.92448425292969,33.439998626708984C117.9617919921875,33.439998626708984,116.23379516601562,33.05599594116211,114.740478515625,32.28800582885742C113.26849365234375,31.520000457763672,112.12718200683594,30.47469711303711,111.31648254394531,29.15200424194336C110.50578308105469,27.807994842529297,110.10049438476562,26.282695770263672,110.10049438476562,24.576000213623047C110.10049438476562,22.848003387451172,110.49517822265625,21.322704315185547,111.28448486328125,20.000003814697266C112.09518432617188,18.656002044677734,113.19378662109375,17.610698699951172,114.58049011230469,16.864002227783203C115.96719360351562,16.096004486083984,117.53518676757812,15.71200180053711,119.28448486328125,15.71200180053711C120.96978759765625,15.71200180053711,122.48448181152344,16.07467269897461,123.8284912109375,16.799999237060547C125.19378662109375,17.50400161743164,126.27117919921875,18.528003692626953,127.06048583984375,19.872005462646484C127.84979248046875,21.194698333740234,128.24447631835938,22.784000396728516,128.24447631835938,24.639995574951172C128.24447631835938,24.83199691772461,128.23379516601562,25.05599594116211,128.21249389648438,25.312007904052734C128.19119262695312,25.546703338623047,128.16978454589844,25.770702362060547,128.1484832763672,25.984004974365234L114.16448974609375,25.984004974365234L114.16448974609375,23.072002410888672L125.52447509765625,23.072002410888672L123.6044921875,23.93600082397461C123.6044921875,23.04000473022461,123.42318725585938,22.261302947998047,123.06048583984375,21.60000228881836C122.69778442382812,20.938701629638672,122.19648742675781,20.426700592041016,121.55648803710938,20.06399917602539C120.91648864746094,19.680004119873047,120.16978454589844,19.48800277709961,119.31648254394531,19.48800277709961C118.46319580078125,19.48800277709961,117.70588684082031,19.680004119873047,117.04449462890625,20.06399917602539C116.40447998046875,20.426700592041016,115.90318298339844,20.949298858642578,115.54048156738281,21.631999969482422C115.17778015136719,22.29330062866211,114.99649047851562,23.082698822021484,114.99649047851562,24.000003814697266L114.99649047851562,24.768001556396484C114.99649047851562,25.706707000732422,115.19918823242188,26.538707733154297,115.6044921875,27.26400375366211C116.03118896484375,27.967998504638672,116.61788940429688,28.512004852294922,117.36448669433594,28.896007537841797C118.13247680664062,29.258708953857422,119.02848815917969,29.439998626708984,120.052490234375,29.439998626708984C120.96978759765625,29.439998626708984,121.769775390625,29.30129623413086,122.45248413085938,29.023998260498047C123.156494140625,28.746700286865234,123.79647827148438,28.330699920654297,124.37248229980469,27.775997161865234L127.02848815917969,30.656002044677734C126.23918151855469,31.551998138427734,125.2471923828125,32.245296478271484,124.052490234375,32.73600387573242C122.8577880859375,33.20530319213867,121.48178100585938,33.439998626708984,119.92448425292969,33.439998626708984Z" style="fill: rgb(219, 80, 0);"/></g></g><g id="shape-2d9a8024-4bd8-80a6-8006-7de8d65e8382"><g class="fills" id="fills-2d9a8024-4bd8-80a6-8006-7de8d65e8382"><path d="M140.7839813232422,33.439998626708984C139.33328247070312,33.439998626708984,138.06399536132812,33.1200065612793,136.97598266601562,32.48000717163086C135.8879852294922,31.840007781982422,135.03468322753906,30.869304656982422,134.41598510742188,29.568004608154297C133.81869506835938,28.245296478271484,133.51998901367188,26.581310272216797,133.51998901367188,24.576000213623047C133.51998901367188,22.549304962158203,133.8079833984375,20.885303497314453,134.3839874267578,19.584003448486328C134.95999145507812,18.282703399658203,135.7919921875,17.312000274658203,136.87997436523438,16.672000885009766C137.96798706054688,16.032001495361328,139.269287109375,15.71200180053711,140.7839813232422,15.71200180053711C142.40528869628906,15.71200180053711,143.85598754882812,16.085330963134766,145.135986328125,16.83200454711914C146.43728637695312,17.557300567626953,147.46128845214844,18.581302642822266,148.20797729492188,19.904003143310547C148.97598266601562,21.226703643798828,149.3599853515625,22.784000396728516,149.3599853515625,24.576000213623047C149.3599853515625,26.389293670654297,148.97598266601562,27.95730209350586,148.20797729492188,29.280010223388672C147.46128845214844,30.602703094482422,146.43728637695312,31.626705169677734,145.135986328125,32.35200119018555C143.85598754882812,33.07729721069336,142.40528869628906,33.439998626708984,140.7839813232422,33.439998626708984ZM130.6079864501953,39.39200973510742L130.6079864501953,15.967998504638672L135.3759765625,15.967998504638672L135.3759765625,19.48800277709961L135.2799835205078,24.60799789428711L135.5999755859375,29.695995330810547L135.5999755859375,39.39200973510742L130.6079864501953,39.39200973510742ZM139.91998291015625,29.344005584716797C140.75198364257812,29.344005584716797,141.48797607421875,29.15200424194336,142.12799072265625,28.768001556396484C142.78927612304688,28.38399887084961,143.31198120117188,27.840007781982422,143.69598388671875,27.135997772216797C144.10128784179688,26.410701751708984,144.30398559570312,25.557308197021484,144.30398559570312,24.576000213623047C144.30398559570312,23.573299407958984,144.10128784179688,22.72000503540039,143.69598388671875,22.016002655029297C143.31198120117188,21.312000274658203,142.78927612304688,20.768001556396484,142.12799072265625,20.38399887084961C141.48797607421875,20.000003814697266,140.75198364257812,19.808002471923828,139.91998291015625,19.808002471923828C139.08798217773438,19.808002471923828,138.34127807617188,20.000003814697266,137.67999267578125,20.38399887084961C137.0186767578125,20.768001556396484,136.49598693847656,21.312000274658203,136.1119842529297,22.016002655029297C135.7279815673828,22.72000503540039,135.53598022460938,23.573299407958984,135.53598022460938,24.576000213623047C135.53598022460938,25.557308197021484,135.7279815673828,26.410701751708984,136.1119842529297,27.135997772216797C136.49598693847656,27.840007781982422,137.0186767578125,28.38399887084961,137.67999267578125,28.768001556396484C138.34127807617188,29.15200424194336,139.08798217773438,29.344005584716797,139.91998291015625,29.344005584716797Z" style="fill: rgb(219, 80, 0);"/></g></g></g><g id="shape-a394f471-c591-804e-8006-7ee405f26e80" rx="0" ry="0"><g id="shape-2d9a8024-4bd8-80a6-8006-7dc9ea0d2cbe"><g class="fills" id="fills-2d9a8024-4bd8-80a6-8006-7dc9ea0d2cbe"><ellipse cx="22.000000000000004" cy="22.000000000000004" rx="22.000000000000004" ry="22.000000000000004" transform="matrix(1.000000, 0.000000, 0.000000, 1.000000, 0.000000, 0.000000)" style="fill: rgb(219, 80, 0); fill-opacity: 1;"/></g></g><g id="shape-2d9a8024-4bd8-80a6-8006-7dc978644fc7" rx="0" ry="0"><g id="shape-2d9a8024-4bd8-80a6-8006-7dc978644fc9"><g class="fills" id="fills-2d9a8024-4bd8-80a6-8006-7dc978644fc9"><path d="M22.498435974121094,24.75000762939453L22.50360107421875,30.25000762939453"/></g><g id="strokes-c1f927bf-7280-8028-8006-7eefce64576f-2d9a8024-4bd8-80a6-8006-7dc978644fc9" class="strokes"><g class="stroke-shape"><path d="M22.498435974121094,24.75000762939453L22.50360107421875,30.25000762939453" style="fill: none; stroke-width: 4; stroke: rgb(0, 29, 89); stroke-opacity: 1;"/></g></g></g><g id="shape-2d9a8024-4bd8-80a6-8006-7dc978644fca"><g class="fills" id="fills-2d9a8024-4bd8-80a6-8006-7dc978644fca"><path d="M12.558332443237305,30.25000762939453L17.198957443237305,37.58333969116211"/></g><g id="strokes-c1f927bf-7280-8028-8006-7eefce64ccd8-2d9a8024-4bd8-80a6-8006-7dc978644fca" class="strokes"><g class="stroke-shape"><defs><marker refX="3" fill-opacity="1" orient="auto-start-reverse" id="marker-render-13-round" viewBox="0 0 6 6" fill="#001d59" refY="3" markerWidth="6" markerHeight="6"><path d="M 3 2.5 A 0.5 0.5 0 0 1 3 3.5 "/></marker></defs><path d="M12.558332443237305,30.25000762939453L17.198957443237305,37.58333969116211" style="fill: none; stroke-width: 2; stroke: rgb(0, 29, 89); stroke-opacity: 1; marker-end: url(&quot;#marker-render-13-round&quot;);"/></g></g></g><g id="shape-2d9a8024-4bd8-80a6-8006-7dc978644fcb"><g class="fills" id="fills-2d9a8024-4bd8-80a6-8006-7dc978644fcb"><path d="M17.599998474121094,30.25000762939453L22.240623474121094,37.58333969116211"/></g><g id="strokes-c1f927bf-7280-8028-8006-7eefce6564a2-2d9a8024-4bd8-80a6-8006-7dc978644fcb" class="strokes"><g class="stroke-shape"><defs><marker refX="3" fill-opacity="1" orient="auto-start-reverse" id="marker-render-14-round" viewBox="0 0 6 6" fill="#001d59" refY="3" markerWidth="6" markerHeight="6"><path d="M 3 2.5 A 0.5 0.5 0 0 1 3 3.5 "/></marker></defs><path d="M17.599998474121094,30.25000762939453L22.240623474121094,37.58333969116211" style="fill: none; stroke-width: 2; stroke: rgb(0, 29, 89); stroke-opacity: 1; marker-end: url(&quot;#marker-render-14-round&quot;);"/></g></g></g><g id="shape-2d9a8024-4bd8-80a6-8006-7dc978644fcc"><g class="fills" id="fills-2d9a8024-4bd8-80a6-8006-7dc978644fcc"><path d="M22.64167022705078,30.25000762939453L27.282299041748047,37.58333969116211"/></g><g id="strokes-c1f927bf-7280-8028-8006-7eefce65f8c8-2d9a8024-4bd8-80a6-8006-7dc978644fcc" class="strokes"><g class="stroke-shape"><defs><marker refX="3" fill-opacity="1" orient="auto-start-reverse" id="marker-render-15-round" viewBox="0 0 6 6" fill="#001d59" refY="3" markerWidth="6" markerHeight="6"><path d="M 3 2.5 A 0.5 0.5 0 0 1 3 3.5 "/></marker></defs><path d="M22.64167022705078,30.25000762939453L27.282299041748047,37.58333969116211" style="fill: none; stroke-width: 2; stroke: rgb(0, 29, 89); stroke-opacity: 1; marker-end: url(&quot;#marker-render-15-round&quot;);"/></g></g></g><g id="shape-2d9a8024-4bd8-80a6-8006-7dc978644fcd"><g class="fills" id="fills-2d9a8024-4bd8-80a6-8006-7dc978644fcd"><path d="M27.68334197998047,30.25000762939453L32.32396697998047,37.58333969116211"/></g><g id="strokes-c1f927bf-7280-8028-8006-7eefce660ec2-2d9a8024-4bd8-80a6-8006-7dc978644fcd" class="strokes"><g class="stroke-shape"><defs><marker refX="3" fill-opacity="1" orient="auto-start-reverse" id="marker-render-16-round" viewBox="0 0 6 6" fill="#001d59" refY="3" markerWidth="6" markerHeight="6"><path d="M 3 2.5 A 0.5 0.5 0 0 1 3 3.5 "/></marker></defs><path d="M27.68334197998047,30.25000762939453L32.32396697998047,37.58333969116211" style="fill: none; stroke-width: 2; stroke: rgb(0, 29, 89); stroke-opacity: 1; marker-end: url(&quot;#marker-render-16-round&quot;);"/></g></g></g><g id="shape-2d9a8024-4bd8-80a6-8006-7dc978644fce"><g class="fills" id="fills-2d9a8024-4bd8-80a6-8006-7dc978644fce"><path d="M32.725006103515625,30.25000762939453L12.558332443237305,30.255168914794922"/></g><g id="strokes-c1f927bf-7280-8028-8006-7eefce6655a5-2d9a8024-4bd8-80a6-8006-7dc978644fce" class="strokes"><g class="stroke-shape"><path d="M32.725006103515625,30.25000762939453L12.558332443237305,30.255168914794922" style="fill: none; stroke-width: 2; stroke: rgb(0, 29, 89); stroke-opacity: 1; stroke-linecap: round;"/></g></g></g></g><g id="shape-2d9a8024-4bd8-80a6-8006-7de17082dc4c"><g class="fills" id="fills-2d9a8024-4bd8-80a6-8006-7de17082dc4c"><path d="M0.3497304916381836,25.924842834472656C0.11996650695800781,24.651138305664062,-1.2789769243681803e-13,23.33946990966797,-1.2789769243681803e-13,22C-1.2789769243681803e-13,21.272216796875,0.0354156494140625,20.55263900756836,0.10461711883544922,19.842899322509766L41.124141693115234,11.123931884765625C42.12194061279297,12.873367309570312,42.886619567871094,14.77265739440918,43.375755310058594,16.779380798339844L0.3497304916381836,25.924842834472656" style="fill: rgb(0, 29, 89); fill-opacity: 1;"/></g></g><g id="shape-2d9a8024-4bd8-80a6-8006-7de159d3a0f8"><g class="fills" id="fills-2d9a8024-4bd8-80a6-8006-7de159d3a0f8"><path d="M0.09550285339355469,24.061477661132812C0.03230857849121094,23.38275146484375,-1.2789769243681803e-13,22.695117950439453,-1.2789769243681803e-13,22C-1.2789769243681803e-13,21.84122085571289,0.00168609619140625,21.682832717895508,0.005040168762207031,21.524852752685547L41.90251541137695,12.619270324707031C42.26252746582031,13.38102912902832,42.580081939697266,14.166719436645508,42.85211944580078,14.973276138305664L0.09550285339355469,24.061477661132812" style="fill: rgb(183, 226, 255); fill-opacity: 1;"/></g></g><g id="shape-f37813ca-e644-8080-8006-403a50cb8d6c" rx="0" ry="0"><g id="shape-f37813ca-e644-8080-8006-3f84c5ea220e"><g class="fills" id="fills-f37813ca-e644-8080-8006-3f84c5ea220e"><rect rx="3" ry="3" x="9.684832325330355" y="11.654584404881799" transform="matrix(0.978148, -0.207912, 0.207912, 0.978148, -3.265148, 5.076690)" width="25.66666666666667" height="12.833333333333332" style="fill: rgb(255, 190, 128); fill-opacity: 1;"/></g></g><g id="shape-f37813ca-e644-8080-8006-3f84ca062d15"><g class="fills" id="fills-f37813ca-e644-8080-8006-3f84ca062d15"><ellipse cx="22.518165658663687" cy="18.071251071548463" rx="8.250000000000004" ry="8.25000000000001" transform="matrix(0.978148, -0.207912, 0.207912, 0.978148, -3.265148, 5.076690)" style="fill: rgb(255, 190, 128); fill-opacity: 1;"/></g><g id="strokes-c1f927bf-7280-8028-8006-7eefce67a591-f37813ca-e644-8080-8006-3f84ca062d15" class="strokes"><g class="inner-stroke-shape" transform="matrix(0.978148, -0.207912, 0.207912, 0.978148, -3.265148, 5.076690)"><defs><clipPath id="inner-stroke-render-22-f37813ca-e644-8080-8006-3f84ca062d15-0"><use href="#stroke-shape-render-22-f37813ca-e644-8080-8006-3f84ca062d15-0"/></clipPath><ellipse cx="22.518165658663687" cy="18.071251071548463" rx="8.250000000000004" ry="8.25000000000001" id="stroke-shape-render-22-f37813ca-e644-8080-8006-3f84ca062d15-0" style="fill: none; stroke-width: 4; stroke: rgb(0, 29, 89); stroke-opacity: 1;"/></defs><use href="#stroke-shape-render-22-f37813ca-e644-8080-8006-3f84ca062d15-0" clip-path="url('#inner-stroke-render-22-f37813ca-e644-8080-8006-3f84ca062d15-0')"/></g></g></g><g id="shape-f37813ca-e644-8080-8006-3f84ca062d16"><g class="fills" id="fills-f37813ca-e644-8080-8006-3f84ca062d16"><ellipse cx="22.518165658663698" cy="18.07125107154846" rx="4.5833333333333375" ry="4.583333333333341" transform="matrix(0.978148, -0.207912, 0.207912, 0.978148, -3.265148, 5.076690)" style="fill: rgb(183, 226, 255); fill-opacity: 1;"/></g><g id="strokes-c1f927bf-7280-8028-8006-7eefce6833be-f37813ca-e644-8080-8006-3f84ca062d16" class="strokes"><g class="inner-stroke-shape" transform="matrix(0.978148, -0.207912, 0.207912, 0.978148, -3.265148, 5.076690)"><defs><clipPath id="inner-stroke-render-23-f37813ca-e644-8080-8006-3f84ca062d16-0"><use href="#stroke-shape-render-23-f37813ca-e644-8080-8006-3f84ca062d16-0"/></clipPath><ellipse cx="22.518165658663698" cy="18.07125107154846" rx="4.5833333333333375" ry="4.583333333333341" id="stroke-shape-render-23-f37813ca-e644-8080-8006-3f84ca062d16-0" style="fill: none; stroke-width: 4; stroke: rgb(0, 29, 89); stroke-opacity: 1;"/></defs><use href="#stroke-shape-render-23-f37813ca-e644-8080-8006-3f84ca062d16-0" clip-path="url('#inner-stroke-render-23-f37813ca-e644-8080-8006-3f84ca062d16-0')"/></g></g></g><g id="shape-f37813ca-e644-8080-8006-4039f3ad881b"><g class="fills" id="fills-f37813ca-e644-8080-8006-4039f3ad881b"><path d="M13.019054412841797,13.061758041381836L11.470319747924805,13.390951156616211C9.850757598876953,13.735198974609375,8.815364837646484,15.329566955566406,9.159612655639648,16.949129104614258L10.770929336547852,24.529773712158203C11.115177154541016,26.149337768554688,12.709543228149414,27.184730529785156,14.329107284545898,26.84048080444336L15.876934051513672,26.51148223876953C16.372705459594727,26.40610122680664,16.689077377319336,25.918933868408203,16.583890914916992,25.42406463623047C16.478702545166016,24.92919921875,15.991535186767578,24.612831115722656,15.49666976928711,24.718017578125L13.784912109375,25.081863403320312C13.245058059692383,25.196613311767578,12.713602066040039,24.851482391357422,12.598852157592773,24.311626434326172L10.918231964111328,16.40493392944336C10.803482055664062,15.86507797241211,11.148614883422852,15.333623886108398,11.688468933105469,15.218873977661133L13.400226593017578,14.85502815246582C13.895092010498047,14.749839782714844,14.211462020874023,14.262674331665039,14.10627555847168,13.767807006835938C14.001087188720703,13.272941589355469,13.513921737670898,12.956571578979492,13.019054412841797,13.061758041381836M32.017276763916016,23.080745697021484L33.566009521484375,22.75155258178711C35.18557357788086,22.407302856445312,36.22096633911133,20.812936782836914,35.87671661376953,19.19337272644043L34.26539993286133,11.612730026245117C33.92115020751953,9.993165969848633,32.326786041259766,8.957773208618164,30.70722198486328,9.302021026611328L29.15911102294922,9.631082534790039C28.663623809814453,9.736400604248047,28.34725570678711,10.223569869995117,28.452442169189453,10.718437194824219C28.557628631591797,11.213300704956055,29.044795989990234,11.529672622680664,29.539661407470703,11.42448616027832L31.251419067382812,11.060640335083008C31.791275024414062,10.945890426635742,32.322731018066406,11.291021347045898,32.43748092651367,11.830877304077148L34.118099212646484,19.73756980895996C34.23284912109375,20.277423858642578,33.887718200683594,20.808879852294922,33.347862243652344,20.923629760742188L31.637683868408203,21.287139892578125C31.141239166259766,21.39266014099121,30.824867248535156,21.87982749938965,30.9300537109375,22.37469482421875C31.035240173339844,22.869564056396484,31.522411346435547,23.185932159423828,32.017276763916016,23.080745697021484" style="fill: rgb(0, 29, 89); fill-opacity: 1;"/></g></g></g></g></g></svg>