<svg width="24" xmlns="http://www.w3.org/2000/svg" height="24" id="screenshot-b4cc01b9-77b1-8076-8007-8ef1a4643e0c" viewBox="0 0 24 24" xmlns:xlink="http://www.w3.org/1999/xlink" fill="none" version="1.1"><g id="shape-b4cc01b9-77b1-8076-8007-8ef1a4643e0c" rx="0" ry="0"><g id="shape-b4cc01b9-77b1-8076-8007-8ef1a4643e0d" style="opacity: 1;"><g class="fills" id="fills-b4cc01b9-77b1-8076-8007-8ef1a4643e0d"><rect rx="0" ry="0" x="0" y="0" transform="matrix(1.000000, 0.000000, 0.000000, 1.000000, 0.000000, 0.000000)" width="24" height="24"/></g></g><g id="shape-b4cc01b9-77b1-8076-8007-8ef672c35906"><g class="fills" id="fills-b4cc01b9-77b1-8076-8007-8ef672c35906"><path d="M5.5,7.7511444091796875C5.5,7.7511444091796875,9.405879974365234,6.80499267578125,13.441169738769531,7.39202880859375C17.641172409057617,8.0030517578125,20.5,10.199981689453125,20.5,10.199981689453125"/></g><g id="strokes-7b47794c-7c8f-808b-8007-91839d07e352-b4cc01b9-77b1-8076-8007-8ef672c35906" class="strokes"><g class="stroke-shape"><path d="M5.5,7.7511444091796875C5.5,7.7511444091796875,9.405879974365234,6.80499267578125,13.441169738769531,7.39202880859375C17.641172409057617,8.0030517578125,20.5,10.199981689453125,20.5,10.199981689453125" style="fill: none; stroke-width: 1.5; stroke: rgb(0, 29, 89); stroke-opacity: 1;"/></g></g></g><g id="shape-b4cc01b9-77b1-8076-8007-8ef672c35907"><g class="fills" id="fills-b4cc01b9-77b1-8076-8007-8ef672c35907"><path d="M5.5,16.25C5.5,16.25,8.611377716064453,17.002593994140625,12.5,17C16.1298885345459,16.997589111328125,19.4999942779541,16.25,19.4999942779541,16.25"/></g><g id="strokes-7b47794c-7c8f-808b-8007-91839d08e842-b4cc01b9-77b1-8076-8007-8ef672c35907" class="strokes"><g class="stroke-shape"><path d="M5.5,16.25C5.5,16.25,8.611377716064453,17.002593994140625,12.5,17C16.1298885345459,16.997589111328125,19.4999942779541,16.25,19.4999942779541,16.25" style="fill: none; stroke-width: 1.5; stroke: rgb(0, 29, 89); stroke-opacity: 1;"/></g></g></g><g id="shape-b4cc01b9-77b1-8076-8007-8ef672c35908"><g class="fills" id="fills-b4cc01b9-77b1-8076-8007-8ef672c35908"><ellipse cx="19" cy="13" rx="4.000000000000002" ry="4" transform="matrix(1.000000, 0.000000, 0.000000, 1.000000, 0.000000, 0.000000)"/></g><g id="strokes-7b47794c-7c8f-808b-8007-91839d091394-b4cc01b9-77b1-8076-8007-8ef672c35908" class="strokes"><g class="inner-stroke-shape" transform="matrix(1.000000, 0.000000, 0.000000, 1.000000, 0.000000, 0.000000)"><defs><clipPath id="inner-stroke-render-5-b4cc01b9-77b1-8076-8007-8ef672c35908-0"><use href="#stroke-shape-render-5-b4cc01b9-77b1-8076-8007-8ef672c35908-0"/></clipPath><ellipse cx="19" cy="13" rx="4.000000000000002" ry="4" id="stroke-shape-render-5-b4cc01b9-77b1-8076-8007-8ef672c35908-0" style="fill: none; stroke-width: 3; stroke: rgb(0, 29, 89); stroke-opacity: 1;"/></defs><use href="#stroke-shape-render-5-b4cc01b9-77b1-8076-8007-8ef672c35908-0" clip-path="url('#inner-stroke-render-5-b4cc01b9-77b1-8076-8007-8ef672c35908-0')"/></g></g></g><g id="shape-b4cc01b9-77b1-8076-8007-8ef672c35909"><g class="fills" id="fills-b4cc01b9-77b1-8076-8007-8ef672c35909"><ellipse cx="6" cy="12" rx="5" ry="5" transform="matrix(1.000000, 0.000000, 0.000000, 1.000000, 0.000000, 0.000000)"/></g><g id="strokes-7b47794c-7c8f-808b-8007-91839d09a861-b4cc01b9-77b1-8076-8007-8ef672c35909" class="strokes"><g class="inner-stroke-shape" transform="matrix(1.000000, 0.000000, 0.000000, 1.000000, 0.000000, 0.000000)"><defs><clipPath id="inner-stroke-render-6-b4cc01b9-77b1-8076-8007-8ef672c35909-0"><use href="#stroke-shape-render-6-b4cc01b9-77b1-8076-8007-8ef672c35909-0"/></clipPath><ellipse cx="6" cy="12" rx="5" ry="5" id="stroke-shape-render-6-b4cc01b9-77b1-8076-8007-8ef672c35909-0" style="fill: none; stroke-width: 3; stroke: rgb(0, 29, 89); stroke-opacity: 1;"/></defs><use href="#stroke-shape-render-6-b4cc01b9-77b1-8076-8007-8ef672c35909-0" clip-path="url('#inner-stroke-render-6-b4cc01b9-77b1-8076-8007-8ef672c35909-0')"/></g></g></g><g id="shape-b4cc01b9-77b1-8076-8007-8ef672c3590a"><g class="fills" id="fills-b4cc01b9-77b1-8076-8007-8ef672c3590a"><ellipse cx="19" cy="12.999999999999986" rx="0.8299999999999983" ry="0.8299999999999983" transform="matrix(1.000000, 0.000000, 0.000000, 1.000000, 0.000000, 0.000000)" style="fill: rgb(0, 29, 89); fill-opacity: 1;"/></g></g><g id="shape-b4cc01b9-77b1-8076-8007-8ef672c3590b"><g class="fills" id="fills-b4cc01b9-77b1-8076-8007-8ef672c3590b"><ellipse cx="6" cy="12" rx="1" ry="1" transform="matrix(1.000000, 0.000000, 0.000000, 1.000000, 0.000000, 0.000000)" style="fill: rgb(0, 29, 89); fill-opacity: 1;"/></g></g></g></svg>