<svg width="24" xmlns="http://www.w3.org/2000/svg" height="24" id="screenshot-b4cc01b9-77b1-8076-8007-8ece22b6817d" viewBox="0 0 24 24" xmlns:xlink="http://www.w3.org/1999/xlink" fill="none" version="1.1"><g id="shape-b4cc01b9-77b1-8076-8007-8ece22b6817d" rx="0" ry="0"><g id="shape-b4cc01b9-77b1-8076-8007-8ece22b6817e" style="opacity: 1;"><g class="fills" id="fills-b4cc01b9-77b1-8076-8007-8ece22b6817e"><rect rx="0" ry="0" x="0" y="0" transform="matrix(1.000000, 0.000000, 0.000000, 1.000000, 0.000000, 0.000000)" width="24" height="24"/></g></g><g id="shape-b4cc01b9-77b1-8076-8007-8f048b1eaa40"><g class="fills" id="fills-b4cc01b9-77b1-8076-8007-8f048b1eaa40"><rect rx="0" ry="0" x="15" y="7" transform="matrix(1.000000, 0.000000, 0.000000, 1.000000, 0.000000, 0.000000)" width="6" height="10" style="fill: rgb(255, 190, 128); fill-opacity: 1;"/></g></g><g id="shape-b4cc01b9-77b1-8076-8007-8f04b42959a6"><g class="fills" id="fills-b4cc01b9-77b1-8076-8007-8f04b42959a6"><rect rx="0" ry="0" x="3" y="7" transform="matrix(1.000000, 0.000000, 0.000000, 1.000000, 0.000000, 0.000000)" width="6" height="10" style="fill: rgb(255, 190, 128); fill-opacity: 1;"/></g></g><g id="shape-b4cc01b9-77b1-8076-8007-8f03fa16c4d4"><g class="fills" id="fills-b4cc01b9-77b1-8076-8007-8f03fa16c4d4"><path d="M17.699996948242188,16.75C17.699996948242188,16.75,20.414283752441406,16.75,20.414283752441406,16.75C20.95714569091797,16.75,21.5,16.275001525878906,21.5,15.800003051757812C21.5,15.800003051757812,21.5,8.199996948242188,21.5,8.199996948242188C21.5,7.724998474121094,20.95714569091797,7.25,20.414283752441406,7.25C20.414283752441406,7.25,17.699996948242188,7.25,17.699996948242188,7.25"/></g><g id="strokes-fb1f1314-2a65-802e-8007-8f23d76d27dd-b4cc01b9-77b1-8076-8007-8f03fa16c4d4" class="strokes"><g class="stroke-shape"><path d="M17.699996948242188,16.75C17.699996948242188,16.75,20.414283752441406,16.75,20.414283752441406,16.75C20.95714569091797,16.75,21.5,16.275001525878906,21.5,15.800003051757812C21.5,15.800003051757812,21.5,8.199996948242188,21.5,8.199996948242188C21.5,7.724998474121094,20.95714569091797,7.25,20.414283752441406,7.25C20.414283752441406,7.25,17.699996948242188,7.25,17.699996948242188,7.25" style="fill: none; stroke-width: 1.5; stroke: rgb(0, 29, 89); stroke-opacity: 1;"/></g></g></g><g id="shape-b4cc01b9-77b1-8076-8007-8f04b42959a7"><g class="fills" id="fills-b4cc01b9-77b1-8076-8007-8f04b42959a7"><path d="M6.299999237060547,16.75C6.299999237060547,16.75,3.5857162475585938,16.75,3.5857162475585938,16.75C3.0428543090820312,16.75,2.5,16.275001525878906,2.5,15.800003051757812C2.5,15.800003051757812,2.5,8.199996948242188,2.5,8.199996948242188C2.5,7.724998474121094,3.0428543090820312,7.25,3.5857162475585938,7.25C3.5857162475585938,7.25,6.299999237060547,7.25,6.299999237060547,7.25"/></g><g id="strokes-fb1f1314-2a65-802e-8007-8f23d76ddaee-b4cc01b9-77b1-8076-8007-8f04b42959a7" class="strokes"><g class="stroke-shape"><path d="M6.299999237060547,16.75C6.299999237060547,16.75,3.5857162475585938,16.75,3.5857162475585938,16.75C3.0428543090820312,16.75,2.5,16.275001525878906,2.5,15.800003051757812C2.5,15.800003051757812,2.5,8.199996948242188,2.5,8.199996948242188C2.5,7.724998474121094,3.0428543090820312,7.25,3.5857162475585938,7.25C3.5857162475585938,7.25,6.299999237060547,7.25,6.299999237060547,7.25" style="fill: none; stroke-width: 1.5; stroke: rgb(0, 29, 89); stroke-opacity: 1;"/></g></g></g><g id="shape-b4cc01b9-77b1-8076-8007-8f0326b9f9a9"><g class="fills" id="fills-b4cc01b9-77b1-8076-8007-8f0326b9f9a9"><path d="M12,5.5C15.587448120117188,5.5,18.5,8.412551879882812,18.5,12C18.5,15.587448120117188,15.587448120117188,18.5,12,18.5C8.412551879882812,18.5,5.5,15.587448120117188,5.5,12C5.5,8.412551879882812,8.412551879882812,5.5,12,5.5M12,10C10.896171569824219,10,10,10.896171569824219,10,12C10,13.103828430175781,10.896171569824219,14,12,14C13.103828430175781,14,14,13.103828430175781,14,12C14,10.896171569824219,13.103828430175781,10,12,10" style="fill: rgb(255, 190, 128); fill-opacity: 1;"/></g><g id="strokes-fb1f1314-2a65-802e-8007-8f23d76e7b79-b4cc01b9-77b1-8076-8007-8f0326b9f9a9" class="strokes"><g class="inner-stroke-shape"><defs><clipPath id="inner-stroke-render-7-b4cc01b9-77b1-8076-8007-8f0326b9f9a9-0"><use href="#stroke-shape-render-7-b4cc01b9-77b1-8076-8007-8f0326b9f9a9-0"/></clipPath><path d="M12,5.5C15.587448120117188,5.5,18.5,8.412551879882812,18.5,12C18.5,15.587448120117188,15.587448120117188,18.5,12,18.5C8.412551879882812,18.5,5.5,15.587448120117188,5.5,12C5.5,8.412551879882812,8.412551879882812,5.5,12,5.5M12,10C10.896171569824219,10,10,10.896171569824219,10,12C10,13.103828430175781,10.896171569824219,14,12,14C13.103828430175781,14,14,13.103828430175781,14,12C14,10.896171569824219,13.103828430175781,10,12,10" id="stroke-shape-render-7-b4cc01b9-77b1-8076-8007-8f0326b9f9a9-0" style="fill: none; stroke-width: 3; stroke: rgb(0, 29, 89); stroke-opacity: 1;"/></defs><use href="#stroke-shape-render-7-b4cc01b9-77b1-8076-8007-8f0326b9f9a9-0" clip-path="url('#inner-stroke-render-7-b4cc01b9-77b1-8076-8007-8f0326b9f9a9-0')"/></g></g></g></g></svg>